<svg width="48" height="48" viewBox="0 0 48 48" fill="none" xmlns="http://www.w3.org/2000/svg">
<g id="blood-svgrepo-com 1" clip-path="url(#clip0_3120_49992)">
<g id="Group">
<path id="Vector" d="M23.9333 44.8696C20.0605 44.8696 16.416 43.3638 13.6711 40.6297C10.9255 37.8949 9.40558 34.2547 9.39128 30.3798C9.38043 27.4344 10.3643 24.5165 12.3993 21.4593C14.4737 18.3431 20.5209 10.0416 23.9923 5.30087C23.9948 5.30431 23.9974 5.30786 23.9999 5.3113V0C23.9999 0 12.8291 15.1641 9.79334 19.7248C7.73487 22.8173 6.24614 26.3901 6.26085 30.3914C6.29695 40.1523 14.239 48.0359 23.9999 47.9999V44.8696C23.9666 44.8696 23.9333 44.8696 23.9333 44.8696Z" fill="#FF926E"/>
<path id="Vector_2" d="M38.2065 19.7248C36.0175 16.4362 24 0 24 0V5.3113C27.6402 10.308 34.0882 19.1874 35.6006 21.4593C37.6355 24.5165 38.6194 27.4345 38.6086 30.3798C38.5943 34.255 37.0745 37.8952 34.3291 40.6299C31.5845 43.3638 27.9398 44.8696 24.067 44.8696H24V47.9999C33.7609 48.0359 41.703 40.1523 41.739 30.3914C41.7537 26.3901 40.265 22.8173 38.2065 19.7248Z" fill="#FF926E"/>
<path id="Vector_3" d="M12.3997 21.4592C10.3647 24.5164 9.38084 27.4344 9.39169 30.3797C9.40599 34.2546 10.9259 37.8948 13.6715 40.6296C16.4164 43.3637 20.0609 44.8695 23.9337 44.8695C23.9337 44.8695 23.9669 44.8695 24.0003 44.8695V41.739H23.9337C17.6645 41.739 12.5452 36.6381 12.522 30.3682L15.6525 30.3566C15.6694 34.9068 19.3842 38.6086 23.9337 38.6086H24.0003V5.31122C23.9978 5.30777 23.9952 5.30422 23.9927 5.30078C20.5213 10.0415 14.4741 18.343 12.3997 21.4592Z" fill="#D5310E"/>
<path id="Vector_4" d="M24 41.7388V44.8692H24.067L24.0611 41.7388H24Z" fill="#F46A1A"/>
<path id="Vector_5" d="M24 9.32812V38.6088H24.0552L24 9.32812Z" fill="#F46A1A"/>
<path id="Vector_6" d="M23.9947 38.6084H24.0064V41.7389C24.0062 41.7389 24.0006 41.7389 24.0006 41.7389L24.0065 44.8693C27.8793 44.8693 31.524 43.3636 34.2686 40.6297C37.014 37.895 38.5339 34.2547 38.5481 30.3797C38.559 27.4342 37.5751 24.5164 35.5401 21.4592C34.0277 19.1871 27.5796 10.3077 23.9395 5.31104V9.3278L23.9947 38.6084Z" fill="#D5310E"/>
<path id="Vector_7" d="M24.0664 41.7389C24.0666 41.7389 24.0666 38.6085 24.0666 38.6085H23.9332C19.3837 38.6085 15.6687 34.9066 15.6519 30.3564L12.5215 30.368C12.5448 36.638 17.664 41.7389 23.9332 41.7389H24.0664Z" fill="white"/>
<path id="Vector_8" d="M23.5205 41.7423C23.5203 41.7423 23.5203 38.6119 23.5203 38.6119H23.6537C28.2032 38.6119 31.9182 34.9101 31.935 30.3599L35.0654 30.3714C35.0422 36.6414 29.923 41.7423 23.6537 41.7423H23.5205Z" fill="white"/>
</g>
</g>
<defs>
<clipPath id="clip0_3120_49992">
<rect width="48" height="48" fill="white"/>
</clipPath>
</defs>
</svg>
