<svg width="24" height="24" viewBox="0 0 24 24" fill="none" xmlns="http://www.w3.org/2000/svg">
<g id="brand-google-analytics-svgrepo-com 1">
<path id="Vector" d="M22.2858 20.4691C22.2858 21.4678 21.4689 22.2848 20.4701 22.2848H3.53192C2.53315 22.2848 1.71622 21.4678 1.71622 20.4691V3.53091C1.71622 2.53214 2.53315 1.71521 3.53192 1.71521H20.4701C21.4689 1.71521 22.2858 2.53214 22.2858 3.53091V20.4691ZM22.2858 8.17788L20.4281 6.92638C20.4654 6.76597 20.4878 6.59905 20.4878 6.42652C20.4878 5.21979 19.5096 4.24059 18.3019 4.24059C17.0942 4.24059 16.116 5.21885 16.116 6.42652C16.116 6.9012 16.2689 7.3395 16.5263 7.69854L12.5097 13.8404C12.3465 13.8012 12.1759 13.7779 12.0005 13.7779C11.4625 13.7779 10.971 13.9728 10.5896 14.2955L7.90098 12.7484C7.91497 12.6495 7.9243 12.5497 7.9243 12.4472C7.9243 11.2404 6.94604 10.2612 5.73837 10.2612C4.5307 10.2612 3.55244 11.2395 3.55244 12.4472C3.55244 12.7465 3.61306 13.0319 3.72217 13.2921L1.71436 15.1544V17.1361L4.6967 14.3692C5.00631 14.537 5.36068 14.6322 5.73744 14.6322C6.31563 14.6322 6.83973 14.4065 7.23047 14.039L9.85377 15.5489C9.82766 15.6832 9.81367 15.8212 9.81367 15.9629C9.81367 17.1697 10.7919 18.1479 11.9996 18.1479C13.2073 18.1479 14.1855 17.1697 14.1855 15.9629C14.1855 15.4603 14.0139 14.9987 13.7286 14.6294L17.7172 8.53039C17.9037 8.58168 18.0986 8.61152 18.3009 8.61152C18.8073 8.61152 19.2717 8.43807 19.6429 8.14897L22.2849 9.92924L22.2858 8.17788Z" fill="white"/>
</g>
</svg>
