<svg width="241" height="175" viewBox="0 0 241 175" fill="none" xmlns="http://www.w3.org/2000/svg">
<g id="Startup 5 1" clip-path="url(#clip0_577_10111)">
<g id="board">
<path id="Vector" d="M49.276 91.868C49.276 91.868 47.356 5.75598 49.66 2.34798C51.964 -1.06002 182.812 -0.676017 185.116 2.34798C187.42 5.37198 188.236 89.996 185.5 93.74C182.812 97.532 49.276 94.892 49.276 91.868Z" fill="#469F78"/>
<g id="light">
<path id="Vector_2" d="M116.38 67.196C115.996 67.196 115.516 67.004 114.988 66.188C114.364 65.228 114.748 64.7 115.036 64.508C115.132 64.412 115.276 64.364 115.42 64.316C115.036 64.028 114.652 63.692 114.364 63.308C114.028 62.972 114.028 62.444 114.364 62.156L114.412 62.108C114.748 61.868 115.084 61.724 115.516 61.676C115.372 61.58 115.18 61.484 115.036 61.388C114.94 61.292 114.556 61.004 114.7 60.716C114.892 60.236 116.716 60.332 118.828 60.62C118.876 60.188 118.972 59.66 119.02 59.18C119.212 57.5 119.452 55.772 119.692 54.188C119.884 52.94 120.028 51.692 120.172 50.54C119.308 50.156 118.684 49.388 118.396 48.524C118.012 47.564 118.444 46.46 119.404 46.076C119.692 45.884 120.028 45.884 120.316 46.076C120.892 46.508 120.94 47.9 120.7 50.252C121.372 50.492 122.044 50.54 122.716 50.444C122.956 50.396 123.196 50.348 123.436 50.3C124.204 48.62 125.068 47.372 125.884 47.132C126.508 46.94 126.892 46.988 127.132 47.228C127.324 47.468 127.372 47.756 127.228 47.996C126.94 48.86 125.644 50.108 123.772 50.684C122.476 53.708 121.42 56.876 120.604 60.092L120.124 59.996C120.892 56.876 121.9 53.852 123.148 50.876L122.764 50.924C122.044 51.068 121.324 51.02 120.604 50.78C120.508 51.788 120.316 52.988 120.124 54.332C119.884 55.964 119.644 57.644 119.452 59.324C119.404 59.852 119.356 60.332 119.26 60.812C120.172 60.956 121.132 61.1 122.044 61.292C123.004 60.38 131.548 52.22 131.836 44.156C131.98 39.884 130.108 36.092 126.94 34.268C123.772 32.444 119.74 32.78 115.852 35.18C108.46 39.836 111.772 47.516 113.356 51.212C113.644 51.884 113.836 52.364 113.98 52.748C115.756 58.412 115.804 60.428 115.804 60.524H115.324C115.324 60.524 115.276 58.46 113.548 52.892C113.452 52.508 113.212 51.98 112.924 51.404C111.292 47.564 107.884 39.596 115.66 34.748C119.692 32.252 123.916 31.916 127.228 33.836C130.54 35.756 132.508 39.74 132.364 44.156C132.028 52.892 122.428 61.628 122.332 61.724L122.236 61.82L122.14 61.772C121.18 61.58 120.172 61.436 119.26 61.292C119.212 61.484 119.212 61.724 119.164 61.916C120.316 62.108 121.276 62.444 121.756 62.828C122.236 63.212 122.044 63.404 121.948 63.548C121.66 63.884 120.364 63.692 118.924 63.26C118.828 63.788 118.684 64.22 118.54 64.652C119.404 64.844 120.172 65.276 120.796 65.9C120.988 66.092 121.18 66.38 121.084 66.668C121.036 66.812 120.892 66.908 120.7 66.956C120.22 67.004 119.116 66.668 117.964 66.092C117.58 66.86 117.1 67.34 116.62 67.484C116.524 67.148 116.476 67.196 116.38 67.196ZM115.948 64.604C115.756 64.652 115.516 64.7 115.372 64.844C115.276 64.94 114.94 65.18 115.42 65.9C115.708 66.332 116.092 66.764 116.524 66.668C116.812 66.62 117.196 66.236 117.532 65.564C116.956 65.276 116.428 64.988 115.948 64.604ZM118.156 65.324C118.924 65.708 119.74 65.996 120.556 66.14C120.508 66.044 120.46 65.996 120.364 65.9C119.788 65.372 119.068 64.94 118.3 64.796C118.3 65.036 118.204 65.18 118.156 65.324ZM116.716 64.556C117.052 64.748 117.388 64.94 117.724 65.132C117.772 64.988 117.82 64.844 117.868 64.7C117.484 64.652 117.1 64.604 116.716 64.556ZM116.62 64.076C117.1 64.076 117.58 64.124 118.06 64.268C118.204 63.836 118.3 63.356 118.444 62.828C117.676 62.588 116.956 62.3 116.284 61.964C115.756 61.964 115.228 62.108 114.796 62.348C114.7 62.396 114.556 62.54 114.844 62.924C115.18 63.356 115.612 63.788 116.092 64.076C116.236 64.076 116.428 64.076 116.62 64.076ZM119.02 62.492C119.836 62.78 120.652 62.924 121.468 62.972L121.42 62.924C121.036 62.588 120.124 62.3 119.068 62.156C119.02 62.252 119.02 62.396 119.02 62.492ZM117.388 61.964C117.772 62.108 118.156 62.252 118.54 62.396C118.588 62.3 118.588 62.204 118.588 62.108C118.204 62.012 117.772 61.964 117.388 61.964ZM117.004 61.484C117.58 61.484 118.156 61.532 118.732 61.58C118.78 61.388 118.78 61.196 118.828 60.956C117.1 60.716 115.66 60.62 115.276 60.764C115.324 60.812 115.372 60.86 115.42 60.86C115.708 61.1 116.044 61.292 116.38 61.436C116.524 61.484 116.764 61.484 117.004 61.484ZM126.556 47.276C126.364 47.276 126.172 47.324 126.028 47.372C125.404 47.564 124.732 48.524 124.06 49.868C125.548 49.292 126.556 48.284 126.796 47.612C126.844 47.468 126.844 47.372 126.796 47.324C126.748 47.276 126.652 47.276 126.556 47.276ZM119.884 46.22C119.788 46.22 119.692 46.268 119.596 46.316C118.876 46.652 118.54 47.468 118.828 48.188C119.068 48.908 119.548 49.484 120.22 49.82C120.412 47.996 120.412 46.556 120.028 46.268C119.98 46.22 119.932 46.22 119.884 46.22Z" fill="white"/>
<path id="Vector_3" d="M115.948 37.1C115.324 37.772 114.748 38.444 114.22 39.164C113.98 39.5 113.692 39.884 113.5 40.268C113.26 40.652 113.068 41.036 112.876 41.468C112.924 40.988 113.02 40.556 113.164 40.124C113.356 39.692 113.548 39.26 113.836 38.876C114.124 38.492 114.46 38.156 114.796 37.868C115.132 37.532 115.516 37.292 115.948 37.1Z" fill="white"/>
<path id="Vector_4" d="M112.588 42.044C112.588 42.044 112.204 42.524 112.348 42.812C112.492 43.1 112.876 41.708 112.588 42.044Z" fill="white"/>
</g>
<g id="chart">
<g id="chart-2">
<path id="Vector_5" d="M156.556 51.74C154.348 51.788 152.14 51.26 150.22 50.156C147.436 48.476 145.612 45.548 144.796 41.42L144.748 41.18L160.204 39.356L153.484 25.196L153.724 25.1C153.772 25.1 160.828 22.604 167.02 27.692C170.236 30.38 171.676 35.852 170.572 41.324C169.612 46.076 166.924 49.532 163.372 50.588C161.212 51.356 158.908 51.74 156.556 51.74ZM145.324 41.612C146.14 45.5 147.868 48.236 150.46 49.772C153.58 51.644 157.948 51.74 163.228 50.156C166.588 49.148 169.18 45.788 170.092 41.228C171.148 35.996 169.756 30.572 166.684 28.028C161.356 23.612 155.404 25.052 154.108 25.436L160.876 39.74L145.324 41.612Z" fill="white"/>
</g>
<path id="Vector_6" d="M150.508 26.156C149.26 26.876 148.204 27.884 147.34 29.036C146.476 30.188 145.852 31.436 145.42 32.828L145.132 33.836C145.036 34.172 145.036 34.556 144.94 34.892C144.844 35.612 144.748 36.332 144.748 37.004C144.748 37.34 144.748 37.724 144.748 38.06L144.796 39.116C144.844 39.836 144.94 40.556 145.036 41.276C144.844 40.556 144.748 39.884 144.556 39.164L144.46 38.06C144.412 37.676 144.364 37.34 144.412 36.956C144.412 36.236 144.412 35.468 144.508 34.748C144.556 34.364 144.604 34.028 144.7 33.644L144.988 32.588C145.42 31.196 146.14 29.852 147.1 28.7C147.196 28.556 147.34 28.412 147.484 28.268L147.868 27.884C148.108 27.644 148.396 27.404 148.684 27.164C149.212 26.828 149.836 26.444 150.508 26.156Z" fill="white"/>
<path id="Vector_7" d="M153.82 39.596C154.876 37.052 156.268 34.7 157.9 32.492C157.372 33.74 156.748 34.988 156.076 36.188C155.404 37.34 154.636 38.492 153.82 39.596Z" fill="white"/>
<path id="Vector_8" d="M149.404 40.892C149.836 39.884 150.364 38.924 150.844 37.964C151.324 37.004 151.852 36.044 152.428 35.132C153.004 34.22 153.532 33.26 154.108 32.348L154.972 30.956C155.26 30.524 155.548 30.044 155.884 29.612C155.644 30.092 155.404 30.572 155.164 31.1L154.396 32.54C153.916 33.5 153.388 34.46 152.812 35.372C152.236 36.284 151.708 37.244 151.132 38.156C150.556 39.068 150.028 39.98 149.404 40.892Z" fill="white"/>
<path id="Vector_9" d="M145.324 40.268C145.852 39.116 146.428 37.964 147.004 36.86C147.58 35.756 148.204 34.604 148.78 33.5C149.356 32.396 150.028 31.292 150.652 30.188L151.612 28.556C151.948 28.028 152.284 27.5 152.62 26.924C152.38 27.5 152.092 28.076 151.804 28.652L150.94 30.332C150.364 31.484 149.74 32.588 149.164 33.692C148.588 34.796 147.916 35.9 147.292 37.004C146.668 38.108 145.996 39.212 145.324 40.268Z" fill="white"/>
</g>
<path id="Vector_10" d="M154.78 57.98C155.404 57.932 156.028 57.836 156.7 57.788C157.324 57.74 157.996 57.692 158.62 57.74C158.716 57.74 158.812 57.74 158.86 57.788C158.908 57.788 158.956 57.836 159.004 57.836C159.052 57.836 159.1 57.884 159.1 57.932C159.1 57.98 159.148 57.98 159.148 58.028C159.196 58.172 159.196 58.364 159.196 58.508C159.196 58.844 159.244 59.132 159.244 59.468C159.244 60.092 159.244 60.764 159.244 61.388V61.628H159.004L154.78 61.484H154.684V61.388L154.78 57.98ZM154.78 57.98L154.876 61.388L154.78 61.292L159.004 61.148L158.764 61.388C158.812 60.764 158.86 60.14 158.86 59.468C158.86 59.132 158.86 58.844 158.908 58.508C158.908 58.364 158.908 58.172 158.908 58.076C158.908 58.076 158.86 58.028 158.812 58.028C158.764 58.028 158.668 57.98 158.572 57.98C157.948 57.932 157.324 57.884 156.652 57.932C156.076 57.932 155.404 57.932 154.78 57.98Z" fill="white"/>
<path id="Vector_11" d="M161.116 60.668C161.644 60.092 162.172 59.516 162.748 59.036C162.892 58.892 163.084 58.796 163.228 58.7C163.324 58.652 163.42 58.604 163.516 58.556C163.564 58.556 163.66 58.508 163.708 58.508C163.804 58.508 163.9 58.556 163.948 58.604C164.044 58.7 164.044 58.844 164.044 58.988C164.044 59.084 164.044 59.18 164.044 59.276C164.044 59.468 164.044 59.66 164.092 59.804C164.188 60.572 165.052 59.948 165.58 59.516C165.868 59.276 166.156 59.036 166.492 58.796C166.636 58.652 166.828 58.556 167.02 58.46C167.116 58.412 167.26 58.364 167.404 58.316C167.5 58.316 167.596 58.316 167.644 58.364C167.74 58.412 167.788 58.46 167.836 58.556C167.932 58.748 168.028 58.988 168.028 59.228L168.076 59.804C168.076 59.948 168.124 60.14 168.172 60.284C168.22 60.38 168.316 60.476 168.46 60.476C168.796 60.428 169.132 60.332 169.372 60.14C169.66 59.948 169.996 59.708 170.236 59.468C170.524 59.18 170.812 58.94 171.148 58.7C171.292 58.604 171.436 58.604 171.58 58.652C171.676 58.7 171.772 58.796 171.82 58.94C171.916 59.132 171.964 59.324 172.012 59.516C172.012 59.708 172.06 59.9 172.156 60.044C172.204 60.188 172.348 60.332 172.54 60.332C172.732 60.332 172.876 60.284 173.068 60.14C173.212 60.044 173.404 59.9 173.548 59.804C173.308 60.14 172.972 60.38 172.588 60.476C172.348 60.476 172.156 60.332 172.06 60.14C171.964 59.948 171.916 59.756 171.868 59.564C171.772 59.228 171.628 58.7 171.436 58.94C171.148 59.18 170.86 59.42 170.62 59.708C170.332 59.996 170.044 60.236 169.708 60.476C169.516 60.572 169.372 60.716 169.18 60.764C168.988 60.86 168.748 60.908 168.508 60.908C168.22 60.908 167.98 60.764 167.836 60.524C167.74 60.332 167.644 60.092 167.644 59.852L167.596 59.276C167.596 59.132 167.548 58.988 167.5 58.844C167.452 58.796 167.5 58.844 167.452 58.844C167.404 58.844 167.308 58.892 167.26 58.892C167.116 58.988 166.972 59.084 166.828 59.18C166.54 59.42 166.252 59.66 165.916 59.9C165.58 60.188 165.244 60.38 164.86 60.572C164.524 60.764 164.044 60.668 163.852 60.284C163.804 60.188 163.756 60.044 163.756 59.9C163.756 59.708 163.756 59.468 163.756 59.276C163.756 59.132 163.804 58.94 163.756 58.796C163.708 58.796 163.66 58.796 163.66 58.796C163.564 58.844 163.516 58.844 163.42 58.892C163.276 58.988 163.084 59.084 162.94 59.18C162.316 59.66 161.692 60.14 161.116 60.668Z" fill="white"/>
<path id="Vector_12" d="M141.58 16.1721C142.204 16.0761 142.828 16.0281 143.5 15.9801C144.124 15.9321 144.796 15.8841 145.42 15.9321C145.516 15.9321 145.612 15.9321 145.66 15.9801C145.708 15.9801 145.756 16.0281 145.804 16.0281C145.852 16.0281 145.9 16.0761 145.9 16.1241C145.9 16.1721 145.948 16.1721 145.948 16.2201C145.996 16.3641 145.996 16.5561 145.996 16.7001C145.996 17.0361 145.996 17.3241 146.044 17.6601C146.044 18.2841 146.044 18.9561 146.044 19.5801V19.8201H145.804L141.58 19.6761H141.484V19.5801L141.58 16.1721ZM141.58 16.1721L141.676 19.5801L141.58 19.4841L145.804 19.3401L145.564 19.5801C145.612 18.9561 145.66 18.2841 145.66 17.6601C145.66 17.3241 145.708 17.0361 145.708 16.7001C145.708 16.5561 145.708 16.3641 145.708 16.2201C145.708 16.2201 145.66 16.1721 145.612 16.1721C145.564 16.1721 145.468 16.1241 145.372 16.1241C144.748 16.0761 144.124 16.0281 143.452 16.0761C142.828 16.1241 142.204 16.1241 141.58 16.1721Z" fill="white"/>
<path id="Vector_13" d="M147.916 18.86C148.444 18.284 148.972 17.708 149.548 17.228C149.692 17.084 149.884 16.988 150.028 16.892C150.124 16.844 150.22 16.796 150.316 16.748C150.364 16.748 150.46 16.7 150.508 16.7C150.604 16.7 150.7 16.748 150.748 16.796C150.844 16.892 150.844 17.036 150.844 17.18C150.844 17.276 150.844 17.372 150.844 17.468C150.844 17.66 150.844 17.852 150.892 17.996C150.988 18.764 151.852 18.14 152.38 17.708C152.668 17.468 152.956 17.228 153.292 16.988C153.436 16.844 153.628 16.748 153.82 16.652C153.916 16.604 154.06 16.556 154.204 16.508C154.396 16.46 154.588 16.556 154.684 16.748C154.78 16.94 154.876 17.18 154.876 17.42L154.924 17.996C154.924 18.14 154.972 18.332 155.02 18.476C155.068 18.572 155.164 18.668 155.308 18.668C155.644 18.62 155.98 18.524 156.22 18.332C156.508 18.14 156.844 17.9 157.084 17.66C157.372 17.372 157.66 17.132 157.996 16.892C158.14 16.796 158.284 16.796 158.428 16.844C158.524 16.892 158.62 16.988 158.668 17.132C158.764 17.324 158.812 17.516 158.86 17.708C158.86 17.9 158.908 18.092 159.004 18.236C159.052 18.38 159.196 18.524 159.388 18.524C159.58 18.524 159.724 18.476 159.916 18.332C160.06 18.236 160.252 18.092 160.396 17.996C160.156 18.332 159.82 18.572 159.436 18.668C159.196 18.668 159.004 18.524 158.908 18.332C158.812 18.14 158.764 17.948 158.716 17.756C158.62 17.42 158.476 16.892 158.284 17.132C157.996 17.372 157.708 17.612 157.468 17.9C157.18 18.188 156.892 18.428 156.556 18.668C156.364 18.764 156.22 18.908 156.028 18.956C155.836 19.052 155.596 19.1 155.356 19.1C155.068 19.1 154.828 18.956 154.684 18.716C154.588 18.524 154.492 18.284 154.492 18.092L154.444 17.516C154.444 17.372 154.396 17.228 154.348 17.084C154.3 17.036 154.348 17.084 154.3 17.084C154.252 17.084 154.156 17.132 154.108 17.132C153.964 17.228 153.82 17.324 153.676 17.42C153.388 17.66 153.1 17.9 152.764 18.14C152.428 18.428 152.092 18.62 151.708 18.764C151.372 18.956 150.892 18.86 150.7 18.476C150.652 18.38 150.604 18.236 150.604 18.092C150.604 17.9 150.604 17.66 150.604 17.468C150.604 17.324 150.652 17.132 150.604 16.988C150.556 16.988 150.508 16.988 150.508 16.988C150.412 17.036 150.364 17.036 150.268 17.084C150.124 17.18 149.932 17.276 149.788 17.372C149.116 17.852 148.492 18.332 147.916 18.86Z" fill="white"/>
<path id="Vector_14" d="M141.484 19.004C141.58 18.668 141.724 18.38 141.916 18.14C142.108 17.852 142.3 17.612 142.492 17.372C142.924 16.892 143.404 16.46 143.932 16.124C143.644 16.7 143.26 17.228 142.828 17.708C142.636 17.948 142.396 18.188 142.156 18.38C141.916 18.572 141.676 18.812 141.484 19.004Z" fill="white"/>
<path id="Vector_15" d="M142.78 19.628C143.116 19.052 143.5 18.572 143.98 18.14C144.412 17.66 144.94 17.276 145.516 16.988C145.18 17.564 144.796 18.044 144.316 18.476C143.836 18.908 143.356 19.34 142.78 19.628Z" fill="white"/>
<path id="Vector_16" d="M77.98 33.5C79.948 30.62 82.204 27.932 84.652 25.484C83.692 26.924 82.636 28.316 81.484 29.66C80.38 30.956 79.228 32.252 77.98 33.5Z" fill="white"/>
<path id="Vector_17" d="M79.228 29.612C78.748 29.612 78.316 29.42 77.98 29.132C77.5 28.7 77.26 28.028 77.452 27.356C77.596 26.78 78.124 26.3 78.7 26.204C79.228 26.06 79.756 26.204 80.188 26.492C80.236 26.54 80.332 26.588 80.38 26.684C80.812 27.164 80.956 27.788 80.812 28.412C80.764 28.652 80.62 28.892 80.428 29.084C80.188 29.42 79.708 29.612 79.228 29.612ZM79.18 26.588C79.084 26.588 78.94 26.588 78.844 26.636C78.412 26.732 78.076 27.02 77.932 27.452C77.788 27.884 77.932 28.412 78.316 28.7C78.796 29.228 79.612 29.228 80.14 28.7C80.236 28.556 80.332 28.412 80.38 28.268C80.524 27.788 80.38 27.308 80.092 26.972L80.044 26.924C79.996 26.876 79.996 26.828 79.948 26.828C79.708 26.684 79.468 26.588 79.18 26.588Z" fill="white"/>
<path id="Vector_18" d="M83.212 33.116C82.78 33.116 82.3 32.924 81.964 32.636C81.484 32.204 81.244 31.532 81.436 30.86C81.628 30.284 82.108 29.804 82.684 29.708C83.212 29.564 83.74 29.708 84.172 29.996C84.22 30.044 84.316 30.092 84.364 30.188C84.796 30.668 84.94 31.292 84.796 31.916C84.748 32.156 84.604 32.396 84.412 32.588C84.124 32.924 83.692 33.116 83.212 33.116ZM83.164 30.14C83.068 30.14 82.924 30.14 82.828 30.188C82.396 30.284 82.06 30.572 81.916 31.004C81.772 31.484 81.916 31.964 82.3 32.252C82.78 32.78 83.596 32.78 84.124 32.252C84.22 32.108 84.316 31.964 84.364 31.82C84.508 31.34 84.364 30.86 84.076 30.524L84.028 30.476C83.98 30.428 83.98 30.38 83.932 30.38C83.692 30.188 83.452 30.092 83.164 30.14Z" fill="white"/>
<path id="Vector_19" d="M59.164 36.812C59.164 36.764 59.116 36.764 59.116 36.764C58.972 36.668 58.732 36.62 58.54 36.668C58.204 36.764 58.012 37.1 58.06 37.436C58.108 37.58 58.156 37.676 58.252 37.772C58.492 38.06 58.924 38.06 59.164 37.82L59.212 37.772C59.26 37.724 59.308 37.628 59.356 37.532C59.404 37.244 59.356 36.956 59.164 36.812Z" fill="white"/>
<path id="Vector_20" d="M61.948 36.812C61.948 36.764 61.9 36.764 61.9 36.764C61.756 36.668 61.516 36.62 61.324 36.668C60.988 36.716 60.748 37.052 60.844 37.388C60.892 37.532 60.94 37.628 61.036 37.724C61.276 37.964 61.708 37.964 61.948 37.724C61.996 37.676 62.044 37.58 62.092 37.484C62.188 37.244 62.14 36.956 61.948 36.812Z" fill="white"/>
<path id="Vector_21" d="M64.78 36.812C64.78 36.764 64.732 36.764 64.732 36.764C64.588 36.668 64.348 36.62 64.156 36.668C63.82 36.716 63.58 37.052 63.676 37.388C63.724 37.532 63.772 37.628 63.868 37.724C64.108 38.012 64.54 38.012 64.78 37.772C64.78 37.772 64.78 37.772 64.828 37.724C64.876 37.676 64.924 37.58 64.972 37.484C65.02 37.244 64.972 36.956 64.78 36.812Z" fill="white"/>
<path id="Vector_22" d="M124.924 13.676C124.444 12.86 123.964 12.044 123.388 11.276C122.86 10.508 122.236 9.83604 121.516 9.21204C121.18 8.92404 120.796 8.73204 120.364 8.58804C119.98 8.49204 119.596 8.63604 119.356 8.92404C118.78 9.50004 118.636 10.46 118.684 11.324C118.732 12.188 118.972 13.1 119.356 13.868C119.548 14.252 119.884 14.54 120.076 14.54C120.268 14.54 120.412 14.396 120.46 14.012C120.46 13.58 120.364 13.196 120.268 12.812C120.124 12.38 119.932 11.996 119.74 11.564C119.308 10.796 118.78 10.076 118.108 9.45204C117.484 8.87604 116.668 8.39604 115.948 8.54004C115.564 8.63604 115.228 8.78004 114.94 9.06804C114.652 9.35604 114.364 9.64404 114.172 10.028C113.788 10.796 113.644 11.66 113.74 12.524C113.788 12.956 113.884 13.34 114.076 13.724C114.268 14.06 114.556 14.252 114.796 14.156C114.844 14.156 114.844 14.156 114.844 14.108L114.892 14.06C114.892 14.012 114.892 13.964 114.892 13.964C114.892 13.772 114.892 13.58 114.844 13.388C114.7 12.956 114.556 12.524 114.364 12.14C113.98 11.324 113.452 10.508 112.876 9.78804C112.588 9.40404 112.252 9.06804 111.916 8.78004C111.58 8.49204 111.148 8.20404 110.764 8.39604C110.332 8.54004 109.996 8.87604 109.804 9.26004C109.564 9.69204 109.468 10.124 109.516 10.604C109.42 10.124 109.468 9.64404 109.66 9.21204C109.852 8.78004 110.236 8.39604 110.716 8.20404C110.956 8.10804 111.244 8.10804 111.484 8.20404C111.724 8.30004 111.964 8.39604 112.156 8.58804C112.54 8.87604 112.924 9.21204 113.26 9.54804C113.884 10.268 114.46 11.084 114.94 11.9C115.18 12.332 115.372 12.812 115.516 13.292C115.612 13.532 115.66 13.82 115.612 14.108C115.612 14.204 115.612 14.252 115.564 14.348C115.516 14.444 115.516 14.54 115.468 14.588C115.372 14.78 115.18 14.876 114.988 14.972C114.652 15.068 114.316 15.02 113.98 14.876C113.74 14.732 113.5 14.492 113.356 14.252C113.068 13.772 112.924 13.292 112.876 12.764C112.732 11.756 112.924 10.7 113.356 9.74004C113.836 8.73204 114.7 7.96404 115.804 7.72404C116.38 7.62804 116.956 7.72404 117.436 7.96404C117.916 8.20404 118.348 8.49204 118.684 8.87604C119.404 9.54804 120.028 10.364 120.508 11.276C120.748 11.708 120.94 12.188 121.084 12.668C121.276 13.196 121.324 13.724 121.324 14.252C121.324 14.588 121.18 14.924 120.988 15.164C120.748 15.452 120.364 15.596 119.98 15.548C119.644 15.5 119.356 15.308 119.116 15.068C118.924 14.876 118.78 14.636 118.636 14.396C118.156 13.484 117.964 12.476 117.964 11.468C117.964 10.94 118.012 10.46 118.156 9.98004C118.3 9.45204 118.588 8.97204 118.972 8.63604C119.404 8.25204 119.98 8.06004 120.556 8.25204C121.036 8.39604 121.516 8.68404 121.852 9.06804C122.524 9.74004 123.148 10.508 123.628 11.372C124.108 11.996 124.54 12.812 124.924 13.676Z" fill="white"/>
<path id="Vector_23" d="M109.372 11.852C109.516 11.9 109.612 11.996 109.756 12.14C109.804 12.188 109.852 12.284 109.852 12.38C109.852 12.476 109.804 12.572 109.756 12.62C109.66 12.716 109.516 12.812 109.372 12.812C109.228 12.764 109.132 12.668 108.988 12.524C108.94 12.476 108.892 12.38 108.892 12.284C108.892 12.188 108.94 12.092 109.036 12.044C109.084 11.996 109.228 11.9 109.372 11.852Z" fill="white"/>
<path id="Vector_24" d="M108.892 29.756C109.42 29.804 109.9 29.948 110.332 30.188C110.764 30.38 111.196 30.668 111.628 30.908C112.444 31.436 113.212 32.06 113.884 32.78C113.02 32.348 112.156 31.868 111.34 31.292L110.14 30.476C109.708 30.236 109.324 29.996 108.892 29.756Z" fill="white"/>
<path id="Vector_25" d="M114.94 25.724C115.132 25.916 115.324 26.156 115.42 26.396C115.516 26.636 115.66 26.876 115.756 27.116C115.948 27.596 116.14 28.124 116.284 28.604C116.62 29.612 116.86 30.668 116.956 31.724C116.524 30.764 116.14 29.756 115.804 28.748C115.66 28.22 115.516 27.74 115.372 27.212L115.132 26.444C115.132 26.252 115.036 25.964 114.94 25.724Z" fill="white"/>
<path id="Vector_26" d="M120.172 30.668C119.98 30.14 119.932 29.564 119.932 28.988C119.932 28.412 119.98 27.836 120.172 27.308C120.46 28.412 120.46 29.564 120.172 30.668Z" fill="white"/>
<g id="magnifying-glass">
<path id="Vector_27" d="M76.9719 40.7L76.7799 41.276C76.7319 41.468 76.6839 41.708 76.5879 41.9C76.4439 42.332 76.2999 42.764 76.1559 43.196L76.0599 43.388L75.8679 43.292C75.2439 43.004 74.6679 42.668 74.0919 42.332L73.8999 42.236L73.9959 42.044C74.4279 41.276 74.8599 40.556 75.2919 39.836L75.3879 39.692L75.5319 39.788C76.0599 40.076 76.5399 40.412 76.9719 40.7ZM76.9719 40.7C76.3959 40.46 75.8679 40.268 75.3879 40.028L75.5799 39.98C75.1959 40.748 74.8119 41.516 74.4279 42.236L74.3319 41.9C74.9079 42.236 75.4839 42.572 76.1079 42.908L75.8199 43.004C76.0119 42.62 76.1559 42.236 76.3479 41.852L76.9719 40.7Z" fill="white"/>
<path id="Vector_28" d="M69.2919 59.18L71.5479 54.476C72.2679 52.892 72.9879 51.308 73.7079 49.772C74.4279 48.236 75.0999 46.604 75.7719 45.02C75.9159 44.636 76.1079 44.204 76.2039 43.82C76.2999 43.628 76.2999 43.484 76.2999 43.292C76.2519 43.148 76.1559 43.004 76.0599 42.86C75.7239 42.62 75.3879 42.428 75.0039 42.332C74.6199 42.188 74.1879 42.092 73.8039 42.044L74.0439 41.948L71.0199 47.084L67.9959 52.22C67.5159 53.084 66.9879 53.948 66.5559 54.812C66.0759 55.676 65.6439 56.54 65.2119 57.452C65.1159 57.692 65.0679 57.932 65.0199 58.172C65.0199 58.412 65.1159 58.652 65.2599 58.844C65.5959 59.228 66.0279 59.468 66.5079 59.564C66.9879 59.708 67.4679 59.756 67.9959 59.708C68.2359 59.708 68.4759 59.66 68.7159 59.564C68.9559 59.516 69.1479 59.372 69.2919 59.18ZM69.2919 59.18C69.1479 59.372 68.9559 59.516 68.7159 59.612C68.4759 59.708 68.2359 59.756 67.9959 59.756C67.5159 59.804 66.9879 59.756 66.5079 59.612C66.0279 59.516 65.5479 59.228 65.2119 58.892C65.0679 58.7 64.9719 58.46 64.9719 58.172C64.9719 58.028 64.9719 57.932 65.0199 57.788L65.1639 57.452C65.5479 56.54 65.9319 55.628 66.4119 54.716C66.8439 53.804 67.3239 52.94 67.8039 52.076C68.7639 50.348 69.6759 48.572 70.6839 46.844C71.6919 45.116 72.6519 43.388 73.6599 41.708L73.7559 41.564L73.8999 41.612C74.3319 41.708 74.7639 41.804 75.1959 41.948C75.6279 42.092 76.0599 42.284 76.3959 42.572C76.5879 42.716 76.7319 43.004 76.7799 43.244C76.7799 43.388 76.7799 43.532 76.7319 43.628C76.6839 43.724 76.6839 43.82 76.6359 43.964C76.4919 44.396 76.2999 44.78 76.1559 45.164C75.4359 46.748 74.7159 48.332 73.9479 49.868L69.2919 59.18Z" fill="white"/>
<path id="Vector_29" d="M82.444 41.9C80.284 41.9 77.788 40.988 74.956 39.116C71.836 37.052 70.204 34.412 70.108 31.196C69.964 26.3 73.516 21.836 75.772 20.204C77.356 19.052 79.708 18.716 82.444 19.244C85.42 19.82 88.348 21.404 89.26 22.892C91.708 26.012 92.332 30.236 90.892 33.932C89.212 38.252 87.148 40.7 84.508 41.564C83.884 41.756 83.164 41.9 82.444 41.9ZM80.044 19.484C78.652 19.436 77.26 19.82 76.108 20.588C73.756 22.316 70.54 26.732 70.636 31.196C70.732 34.22 72.268 36.764 75.244 38.732C78.844 41.084 81.916 41.9 84.412 41.132C86.908 40.364 88.876 37.916 90.46 33.788C91.852 30.236 91.276 26.204 88.876 23.228V23.18C88.156 21.98 85.516 20.396 82.348 19.772C81.628 19.58 80.812 19.484 80.044 19.484Z" fill="white"/>
</g>
</g>
<g id="character-2">
<path id="Vector_30" d="M118.684 96.284C121.132 96.38 129.772 96.476 129.772 96.476C129.772 96.476 127.756 88.412 124.108 88.076C120.46 87.74 118.684 96.284 118.684 96.284Z" fill="#000001"/>
<path id="Vector_31" d="M117.052 106.316C117.724 106.892 120.94 108.092 120.796 107.18C120.172 103.292 119.164 97.052 121.468 96.572C125.836 95.708 127.804 89.9 127.804 89.9C127.804 89.9 131.452 88.412 131.404 87.548C131.356 86.684 128.332 85.244 126.268 83.372C124.204 81.5 122.716 78.86 120.412 79.532C118.108 80.204 121.084 83.132 119.644 86.012C118.78 87.74 116.668 87.788 116.668 87.788C116.668 87.788 116.044 85.052 113.308 87.212C110.572 89.372 115.324 92.204 115.084 92.924C114.556 94.46 114.22 104.924 113.836 106.892C113.74 107.228 117.052 106.316 117.052 106.316Z" fill="#EA8383"/>
<path id="Vector_32" d="M121.996 85.724C122.188 85.532 122.428 85.436 122.668 85.388C122.908 85.34 123.148 85.388 123.388 85.484C123.628 85.58 123.82 85.724 124.012 85.916C124.204 86.108 124.3 86.396 124.252 86.684C123.964 86.636 123.772 86.588 123.58 86.54C123.388 86.492 123.244 86.444 123.052 86.396C122.908 86.348 122.716 86.252 122.572 86.156C122.38 86.012 122.188 85.868 121.996 85.724Z" fill="#000001"/>
<path id="Vector_33" d="M121.276 88.028C121.18 87.98 121.132 87.884 121.18 87.74C121.18 87.644 121.228 87.596 121.276 87.5C121.372 87.356 121.612 87.308 121.756 87.404C121.756 87.5 121.756 87.596 121.708 87.644C121.708 87.692 121.66 87.74 121.66 87.788C121.612 87.836 121.564 87.836 121.516 87.884C121.42 87.98 121.372 87.98 121.276 88.028Z" fill="#000001"/>
<path id="Vector_34" d="M122.332 88.268C122.188 88.124 122.14 87.932 122.236 87.788C122.284 87.692 122.332 87.644 122.428 87.596C122.524 87.548 122.62 87.548 122.716 87.596C122.716 87.74 122.716 87.884 122.668 88.028C122.62 88.124 122.476 88.22 122.332 88.268Z" fill="#000001"/>
<path id="Vector_35" d="M122.62 92.348C122.908 91.964 123.484 91.82 123.964 92.06C124.732 92.492 123.484 94.412 122.284 94.076C121.084 93.74 122.62 92.348 122.62 92.348Z" fill="#A04040"/>
<path id="Vector_36" d="M122.428 91.292C122.62 91.628 122.716 91.868 122.908 92.06C123.052 92.252 123.196 92.444 123.388 92.588C123.58 92.732 123.772 92.924 123.964 93.068L124.348 93.308C124.492 93.404 124.636 93.5 124.78 93.596C124.636 93.692 124.444 93.74 124.3 93.788C124.108 93.788 123.964 93.788 123.772 93.788C123.388 93.74 123.052 93.548 122.764 93.308C122.476 93.02 122.332 92.684 122.284 92.3C122.14 91.964 122.236 91.58 122.428 91.292Z" fill="#000001"/>
<path id="Vector_37" d="M121.612 84.428C121.516 84.14 121.516 83.852 121.66 83.564C121.9 83.036 122.476 82.652 123.052 82.7C123.34 82.7 123.628 82.796 123.82 82.988C123.628 83.132 123.388 83.276 123.196 83.42C123.004 83.516 122.86 83.612 122.716 83.708C122.428 83.948 122.14 84.14 121.612 84.428Z" fill="#000001"/>
<path id="Vector_38" d="M122.38 79.196C122.38 79.196 120.796 87.5 115.516 90.476C115.516 90.476 120.364 93.164 119.452 96.044C118.54 98.924 123.388 99.836 123.148 102.044L98.092 99.308C98.092 99.308 100.444 92.348 105.292 92.396C110.14 92.444 103.996 86.828 109.42 81.884C114.844 76.94 122.38 79.196 122.38 79.196Z" fill="#A04040"/>
<path id="Vector_39" d="M96.364 99.164C96.892 96.428 98.668 94.028 101.116 92.684C102.412 92.012 103.9 91.772 105.34 91.964C106.732 92.204 107.98 92.876 108.94 93.884C107.74 93.596 106.492 93.452 105.196 93.452C104.044 93.5 102.94 93.836 101.932 94.364C100.876 94.94 99.916 95.612 99.052 96.428C98.188 97.292 97.276 98.204 96.364 99.164Z" fill="#A04040"/>
<path id="Vector_40" d="M122.38 79.196C122.236 80.828 121.9 82.364 121.324 83.9C120.748 85.436 119.98 86.876 118.924 88.124C118.396 88.748 117.772 89.324 117.1 89.804C116.428 90.284 115.66 90.668 114.844 90.908C113.26 91.388 111.58 91.34 109.996 90.764C111.532 90.956 113.116 90.716 114.556 90.188C115.948 89.612 117.196 88.652 118.108 87.452C119.068 86.252 119.932 84.956 120.556 83.516C121.324 82.172 121.9 80.684 122.38 79.196Z" fill="#000001"/>
<path id="Vector_41" d="M120.46 101.804L114.22 102.284L114.364 101.132L120.46 101.804Z" fill="#000001"/>
<path id="Vector_42" d="M111.532 103.052V107.804C111.532 107.804 109.18 102.956 104.188 110.012C102.892 111.836 95.788 123.788 95.692 131.228C95.596 138.668 106.54 133.916 106.54 133.916L108.844 139.244L125.788 138.716L128.236 133.868C128.236 133.868 138.172 136.508 139.708 132.62C141.244 128.732 131.788 113.612 129.484 110.012C125.068 103.004 121.66 107.564 121.66 107.564C121.66 107.564 122.476 103.196 121.9 103.052C121.324 102.908 111.532 103.052 111.532 103.052Z" fill="#F3CB5C"/>
<path id="Vector_43" d="M120.508 118.076C120.508 118.076 126.028 117.26 126.892 117.26C127.756 117.26 130.78 119.612 130.78 119.948V121.58C130.78 121.58 131.404 123.788 131.068 123.788C130.732 123.788 124.588 123.164 124.588 123.164C124.588 123.164 121.084 117.98 120.508 118.076Z" fill="#EA8383"/>
<path id="Vector_44" d="M128.284 119.228C128.572 119.276 128.86 119.372 129.1 119.564C129.58 119.9 130.012 120.284 130.396 120.764C130.588 121.004 130.732 121.244 130.828 121.58C130.588 121.388 130.348 121.244 130.156 121.052C129.964 120.86 129.724 120.668 129.484 120.476C129.244 120.284 129.052 120.092 128.86 119.852C128.668 119.612 128.476 119.42 128.284 119.228Z" fill="#000001"/>
<path id="Vector_45" d="M107.932 120.38C107.932 120.38 104.668 118.364 104.572 119.756C104.572 119.756 101.932 119.132 100.684 119.228C99.436 119.324 100.684 120.14 100.684 120.14C100.684 120.14 99.004 119.756 99.34 120.524C99.676 121.292 100.924 122.06 100.924 122.06L107.932 120.38Z" fill="#EA8383"/>
<path id="Vector_46" d="M101.5 120.38H101.356C101.356 120.428 101.404 120.284 101.404 120.284H101.452H101.644L102.028 120.332C102.268 120.38 102.508 120.428 102.796 120.524C103.276 120.668 103.756 120.908 104.188 121.244C103.66 121.244 103.132 121.148 102.652 121.004C102.412 120.908 102.172 120.812 101.932 120.716L101.596 120.524L101.452 120.428L101.404 120.38C101.356 120.428 101.452 120.236 101.452 120.284L101.5 120.38Z" fill="#000001"/>
<path id="Vector_47" d="M102.844 119.42C103.516 119.372 104.188 119.468 104.812 119.708C105.148 119.804 105.436 119.948 105.724 120.092C106.012 120.236 106.3 120.476 106.54 120.716C106.204 120.62 105.916 120.524 105.58 120.428L104.668 120.14C104.044 119.996 103.42 119.756 102.844 119.42Z" fill="#000001"/>
<path id="Vector_48" d="M124.636 123.164C123.388 124.796 121.852 126.188 120.172 127.34C119.356 127.964 118.444 128.492 117.58 129.02C116.716 129.548 115.804 130.028 114.892 130.508C113.068 131.468 111.244 132.332 109.324 133.1C107.452 133.868 105.532 134.54 103.564 135.116C107.212 133.292 110.86 131.564 114.412 129.644C116.188 128.732 117.964 127.724 119.692 126.716C121.516 125.708 123.148 124.508 124.636 123.164Z" fill="#000001"/>
<path id="Vector_49" d="M99.292 122.78C100.972 122.06 102.7 121.436 104.428 120.908C106.156 120.38 107.932 119.852 109.708 119.42C111.484 118.988 113.26 118.604 115.084 118.364C116.908 118.076 118.732 117.98 120.556 118.124C118.732 118.364 116.956 118.7 115.18 119.132C113.404 119.564 111.676 119.948 109.9 120.38L104.62 121.628C102.844 122.012 101.068 122.396 99.292 122.78Z" fill="#000001"/>
<path id="Vector_50" d="M107.308 115.148C107.5 115.532 107.596 115.964 107.692 116.348C107.74 116.732 107.788 117.164 107.788 117.596C107.788 118.028 107.74 118.412 107.692 118.796C107.644 119.228 107.5 119.612 107.308 119.996C107.116 119.612 107.02 119.18 106.924 118.748C106.876 118.364 106.828 117.932 106.828 117.548C106.828 117.116 106.876 116.732 106.924 116.348C107.02 115.916 107.164 115.532 107.308 115.148Z" fill="#000001"/>
<path id="Vector_51" d="M134.428 124.556C133.804 124.604 133.132 124.652 132.508 124.604C131.884 124.556 131.26 124.508 130.636 124.412C130.012 124.316 129.388 124.172 128.764 124.028C128.14 123.884 127.516 123.644 126.94 123.404C127.564 123.308 128.236 123.26 128.86 123.26C129.484 123.26 130.156 123.356 130.78 123.452C131.404 123.548 132.028 123.692 132.652 123.884C133.276 124.028 133.852 124.268 134.428 124.556Z" fill="#000001"/>
<path id="Vector_52" d="M129.628 134.156C128.332 134.06 127.084 133.916 125.836 133.676C124.588 133.436 123.34 133.148 122.092 132.86C120.844 132.572 119.644 132.188 118.444 131.708C117.82 131.468 117.244 131.228 116.668 130.988C116.38 130.844 116.092 130.7 115.804 130.508C115.66 130.412 115.516 130.364 115.372 130.268L114.988 129.98C115.276 130.124 115.564 130.22 115.9 130.316C116.188 130.412 116.524 130.508 116.812 130.556C117.1 130.604 117.436 130.7 117.724 130.796L118.636 131.036C119.884 131.324 121.084 131.66 122.332 131.948C123.58 132.236 124.78 132.62 125.98 132.956C127.18 133.292 128.428 133.676 129.628 134.156Z" fill="#000001"/>
<path id="Vector_53" d="M96.988 174.572C96.988 174.572 101.356 142.172 108.892 139.292L125.836 138.764C125.836 138.764 129.532 143.9 133.132 174.572H96.988Z" fill="#F3CB5C"/>
</g>
<g id="character-1">
<path id="Vector_54" d="M7.80396 171.26C7.80396 171.26 11.356 151.244 12.7 150.62C14.044 149.996 44.86 151.484 44.86 151.484C44.86 151.484 49.228 162.092 49.228 172.124L7.80396 171.26Z" fill="#F2EBEB"/>
<path id="Vector_55" d="M36.892 160.796C38.236 159.644 39.628 158.588 40.924 157.436C41.548 156.86 42.22 156.284 42.796 155.66C43.42 155.036 43.948 154.364 44.476 153.692C44.284 154.556 43.9 155.42 43.372 156.14C42.844 156.86 42.22 157.532 41.548 158.156C40.876 158.732 40.156 159.26 39.34 159.74C38.572 160.172 37.756 160.556 36.892 160.796Z" fill="#000001"/>
<g id="character-1-2">
<path id="Vector_56" d="M93.964 87.02C93.964 87.02 93.292 91.868 93.484 94.412C93.676 96.956 91.324 104.972 91.324 104.972L86.38 92.012L88.876 92.828L93.964 87.02Z" fill="#A04040"/>
<g id="paper">
<path id="Vector_57" d="M106.396 64.988C102.316 64.604 98.236 63.788 94.348 62.54C87.724 60.476 88.78 60.86 88.012 61.052C87.244 61.244 69.052 85.916 69.052 85.916C69.052 85.916 88.828 93.02 89.308 92.876C89.788 92.732 100.396 78.428 102.028 75.26C103.66 72.092 107.164 68.012 106.396 64.988Z" fill="#F2EBEB"/>
<path id="Vector_58" d="M82.9241 76.124C83.3561 75.116 83.8361 74.156 84.3641 73.244C84.8921 72.284 85.5161 71.372 86.2361 70.556C86.6201 70.124 87.0521 69.788 87.5801 69.548C88.1561 69.308 88.8281 69.5 89.2121 69.98C89.5481 70.46 89.7401 71.036 89.7401 71.612C89.7881 72.14 89.7401 72.716 89.6441 73.244C89.5001 74.348 89.2121 75.404 88.7801 76.412C88.6841 76.652 88.5401 76.94 88.3961 77.18C88.3001 77.324 88.2521 77.42 88.1561 77.564C88.1081 77.612 88.0601 77.708 87.9641 77.756C87.8681 77.852 87.7241 77.9 87.6281 77.852C87.4841 77.804 87.3881 77.708 87.3401 77.612C87.2921 77.516 87.2921 77.468 87.2921 77.372C87.2921 77.228 87.2441 77.084 87.2441 76.94C87.2441 76.652 87.2921 76.364 87.3401 76.076C87.6761 75.02 88.3001 74.06 89.0681 73.244C89.4521 72.812 89.8361 72.428 90.3161 72.092C90.5561 71.9 90.7961 71.756 91.0361 71.66C91.3241 71.516 91.6121 71.42 91.9481 71.468C92.0441 71.468 92.1401 71.516 92.2361 71.564C92.3321 71.612 92.4281 71.66 92.4761 71.756C92.5721 71.9 92.6681 72.044 92.6681 72.236C92.7161 72.524 92.6681 72.812 92.6201 73.1C92.5241 73.628 92.3801 74.204 92.1401 74.684C91.9481 75.212 91.6601 75.692 91.2761 76.124C91.0841 76.364 90.8921 76.556 90.6521 76.748C90.5561 76.796 90.5081 76.844 90.4121 76.844C90.2681 76.892 90.1721 76.892 90.0281 76.844C89.9321 76.748 89.8361 76.652 89.8361 76.508C89.8361 76.412 89.8361 76.316 89.8841 76.268C90.0761 75.74 90.3161 75.212 90.7001 74.78C91.0361 74.348 91.3721 73.916 91.8041 73.532C92.1881 73.148 92.6201 72.764 93.1001 72.476C93.5801 72.14 94.1081 71.9 94.6841 71.9C95.0201 71.9 95.3561 72.044 95.5961 72.284C95.7881 72.524 95.8841 72.812 95.9321 73.1C96.0281 73.676 96.0281 74.204 95.9321 74.78C95.8361 75.356 95.6441 75.884 95.3081 76.316C95.1641 76.556 94.9241 76.748 94.6841 76.94C94.5881 76.988 94.4921 76.988 94.3961 76.988C94.3481 76.988 94.2521 76.94 94.2521 76.892C94.2041 76.844 94.2041 76.796 94.2041 76.748C94.2041 76.604 94.2041 76.46 94.2521 76.316C94.3481 76.028 94.4441 75.788 94.5881 75.548C94.7321 75.308 94.8761 75.068 95.0681 74.876C95.4521 74.444 95.8361 74.108 96.3161 73.82C97.2281 73.244 98.2361 72.812 99.3401 72.62C98.2841 72.86 97.2761 73.34 96.4121 73.916C95.9801 74.204 95.5961 74.588 95.2601 74.972C95.1161 75.164 94.9721 75.404 94.8281 75.644C94.6841 75.884 94.5881 76.124 94.5401 76.364C94.4921 76.46 94.4921 76.604 94.4921 76.7C94.4921 76.748 94.4921 76.748 94.4921 76.748C94.5401 76.748 94.5881 76.748 94.5881 76.7C94.7801 76.556 94.9721 76.364 95.1161 76.172C95.4041 75.74 95.5961 75.26 95.6441 74.732C95.7401 74.204 95.7401 73.676 95.5961 73.196C95.5481 72.956 95.4521 72.716 95.3081 72.524C95.1641 72.38 94.9721 72.284 94.7321 72.284C94.2521 72.332 93.7721 72.524 93.3401 72.86C92.9081 73.148 92.5241 73.484 92.1401 73.868C91.7561 74.252 91.4201 74.636 91.1321 75.068C90.7961 75.452 90.5561 75.932 90.4121 76.412C90.4121 76.46 90.4121 76.508 90.4121 76.556C90.4121 76.604 90.4121 76.604 90.3641 76.556C90.3161 76.508 90.3161 76.556 90.3641 76.556C90.4121 76.556 90.4601 76.508 90.5081 76.508C90.7001 76.364 90.8921 76.22 91.0361 75.98C91.3721 75.548 91.6121 75.116 91.8041 74.636C91.9961 74.156 92.1401 73.628 92.2361 73.148C92.3321 72.668 92.2841 72.044 91.9961 72.092C91.7561 72.092 91.5641 72.14 91.3721 72.236C91.1321 72.332 90.9401 72.476 90.7001 72.62C90.2681 72.956 89.8841 73.292 89.5481 73.676C88.8281 74.444 88.2521 75.356 87.9161 76.316C87.8201 76.556 87.8201 76.796 87.8201 77.036C87.8201 77.18 87.8201 77.276 87.8201 77.42C87.8201 77.468 87.8201 77.516 87.8681 77.564C87.8681 77.612 87.9161 77.564 87.8201 77.564C87.7241 77.564 87.8201 77.564 87.8201 77.516C87.8681 77.468 87.9161 77.42 87.9161 77.42C88.0121 77.324 88.0601 77.228 88.1081 77.132C88.2521 76.892 88.3481 76.652 88.4441 76.412C88.8761 75.452 89.1641 74.396 89.3561 73.34C89.4521 72.812 89.5001 72.284 89.4521 71.756C89.4521 71.228 89.3081 70.748 89.0201 70.316C88.7321 69.932 88.2041 69.788 87.7241 69.98C87.2441 70.172 86.8121 70.508 86.4761 70.892C85.7561 71.66 85.0841 72.524 84.5561 73.484C83.9321 74.204 83.4041 75.116 82.9241 76.124Z" fill="#EA8383"/>
<path id="Vector_59" d="M91.42 58.652C91.42 58.892 91.42 59.132 91.324 59.324C91.276 59.516 91.18 59.66 91.036 59.852C90.892 59.996 90.748 60.14 90.604 60.236C90.412 60.332 90.172 60.428 89.932 60.428C89.932 60.188 89.932 59.948 90.028 59.756C90.076 59.564 90.22 59.42 90.316 59.276C90.46 59.132 90.604 58.988 90.748 58.892C90.988 58.748 91.18 58.7 91.42 58.652Z" fill="#F3CB5C"/>
<path id="Vector_60" d="M88.7801 57.116C88.9721 57.356 89.0681 57.596 89.1161 57.884C89.1641 58.124 89.2121 58.364 89.2121 58.652C89.2121 58.892 89.1641 59.132 89.1161 59.42C89.0201 59.708 88.9241 59.948 88.7321 60.14C88.5881 59.9 88.4441 59.66 88.3481 59.372C88.2041 58.892 88.2521 58.364 88.3961 57.884C88.4441 57.596 88.5881 57.308 88.7801 57.116Z" fill="#F3CB5C"/>
<path id="Vector_61" d="M87.1 60.188C86.908 60.188 86.764 60.092 86.62 59.996C86.524 59.9 86.428 59.804 86.428 59.708C86.38 59.612 86.38 59.468 86.428 59.324C86.476 59.18 86.572 58.988 86.668 58.892C86.86 58.892 87.004 58.988 87.148 59.084C87.244 59.18 87.34 59.276 87.34 59.372C87.388 59.468 87.388 59.612 87.34 59.756C87.292 59.9 87.196 60.044 87.1 60.188Z" fill="#F3CB5C"/>
</g>
<path id="Vector_62" d="M52.876 69.068C52.876 69.068 55.18 80.06 54.7 80.204C54.22 80.348 53.02 79.868 53.02 79.868C53.02 79.868 53.932 87.5 51.196 97.436C51.196 97.436 40.396 95.42 35.788 90.428C35.788 90.428 38.284 64.076 40.588 63.452C42.892 62.828 52.876 69.068 52.876 69.068Z" fill="#A04040"/>
<path id="Vector_63" d="M40.9719 70.748C40.9719 70.748 41.7879 76.172 41.1639 77.084C40.5399 77.996 37.6119 75.068 37.6119 75.068C37.6119 75.068 37.7559 62.924 39.1479 61.484C40.5399 60.044 64.4439 71.084 62.2839 71.9C60.1239 72.716 52.8759 69.068 52.8759 69.068L45.0999 67.868C45.0999 67.868 43.2279 70.46 40.9719 70.748Z" fill="#F3CB5C"/>
<path id="Vector_64" d="M45.3879 73.772C45.3879 73.772 49.1319 72.62 50.2839 75.836C50.3799 76.076 50.2359 76.316 50.0439 76.412H49.9959C48.7959 76.604 45.9639 76.748 45.3879 73.772Z" fill="#F2EBEB"/>
<path id="Vector_65" d="M45.1959 73.724C45.7239 73.484 46.2519 73.388 46.7799 73.34C47.3559 73.292 47.9319 73.388 48.4599 73.58C48.9879 73.772 49.4679 74.108 49.8039 74.588C50.1399 75.02 50.3319 75.596 50.3319 76.172C49.9959 75.212 49.2279 74.396 48.2679 74.06C47.7879 73.868 47.3079 73.772 46.7799 73.724C46.2519 73.676 45.7239 73.676 45.1959 73.724Z" fill="#000001"/>
<path id="Vector_66" d="M48.892 74.06C48.892 74.06 47.836 74.3 48.124 76.412C48.124 76.412 50.524 76.796 50.332 76.028C50.332 76.028 49.756 74.108 48.892 74.06Z" fill="#000001"/>
<path id="Vector_67" d="M45.34 79.148C45.772 79.724 46.3 80.252 46.876 80.636C47.116 80.828 47.452 80.924 47.74 80.972C47.884 81.02 48.076 81.02 48.268 81.068C48.46 81.068 48.7 81.116 48.892 81.116C48.748 81.26 48.556 81.404 48.364 81.5C48.172 81.596 47.932 81.692 47.74 81.692C47.26 81.788 46.78 81.692 46.348 81.404C45.964 81.164 45.628 80.78 45.484 80.348C45.292 80.012 45.244 79.58 45.34 79.148Z" fill="#000001"/>
<path id="Vector_68" d="M44.86 72.812C44.956 72.38 45.196 71.948 45.532 71.66C45.868 71.324 46.3 71.084 46.732 70.988C47.164 70.844 47.644 70.844 48.124 70.94C48.556 71.036 48.988 71.228 49.324 71.564C48.844 71.612 48.46 71.612 48.076 71.708C47.692 71.756 47.356 71.804 47.02 71.9C46.204 72.092 45.532 72.428 44.86 72.812Z" fill="#F3CB5C"/>
<path id="Vector_69" d="M40.204 73.532C40.204 73.532 39.436 68.156 37.612 69.02C35.788 69.884 38.572 75.548 38.572 75.548L40.204 73.532Z" fill="#A04040"/>
<path id="Vector_70" d="M52.684 127.676C52.684 127.676 66.748 145.58 73.132 143.708C79.516 141.836 91.276 104.972 91.276 104.972L82.684 102.332C82.684 102.332 73.276 118.22 71.98 118.076C70.684 117.932 66.796 99.26 66.796 99.26L52.684 127.676Z" fill="#000001"/>
<path id="Vector_71" d="M89.4519 96.812C89.4519 96.812 87.8199 93.644 87.8199 92.492C87.8199 91.34 88.2039 85.82 86.7639 87.26C85.3239 88.7 82.7319 102.332 82.7319 102.332L91.3239 104.972L89.4519 96.812Z" fill="#A04040"/>
<path id="Vector_72" d="M47.068 152.06C47.068 152.06 69.148 104.492 66.796 99.212C64.444 93.932 28.156 87.116 19.66 93.26C11.164 99.404 10.108 151.484 10.108 151.484L47.068 152.06Z" fill="#000001"/>
</g>
</g>
<g id="character-3">
<path id="Vector_73" d="M169.564 173.948L171.004 161.948L203.404 163.148C203.404 163.148 206.764 170.588 206.524 174.668L169.564 173.948Z" fill="#469F78"/>
<g id="character-3-2">
<path id="Vector_74" d="M148.54 115.484C148.54 115.484 153.1 142.892 160.684 145.436C164.668 146.78 180.796 129.74 180.796 129.74L178.3 104.876L163.612 126.908L156.844 113.468L148.54 115.484Z" fill="#000001"/>
<path id="Vector_75" d="M207.1 165.548L205.228 155.084C205.228 155.084 215.164 107.66 210.7 102.332C206.236 97.004 187.468 98.636 181.132 102.188C170.092 108.38 167.644 164.3 167.644 164.3L207.1 165.548Z" fill="#87CCDB"/>
<path id="Vector_76" d="M210.7 102.332C210.7 102.332 234.028 137.948 230.284 141.5C224.572 146.924 214.876 154.412 214.876 154.412L202.78 156.236L215.74 138.956C215.74 138.956 203.548 124.892 203.548 119.564C203.548 114.236 210.7 102.332 210.7 102.332Z" fill="#87CCDB"/>
<path id="Vector_77" d="M156.844 113.516C156.844 113.516 155.644 107.18 155.644 105.308C155.644 101.324 156.796 97.724 155.74 98.012C154.684 98.3 152.524 102.14 152.524 102.14C152.524 102.14 150.988 97.436 150.988 95.564C150.988 93.692 150.988 92.636 150.46 92.684C149.932 92.732 148.684 95.804 148.828 98.204C148.828 98.204 146.668 97.292 146.668 99.452C146.668 99.452 145.324 98.732 145.468 101.228C145.612 103.724 148.54 115.436 148.54 115.436C148.54 115.436 155.5 116.396 156.844 113.516Z" fill="#EA8383"/>
<path id="Vector_78" d="M151.372 109.244C151.372 109.292 151.276 109.34 151.228 109.292C151.18 109.292 151.132 109.244 151.084 109.196C151.036 109.148 150.94 109.052 150.892 108.956C150.796 108.764 150.7 108.62 150.652 108.428C150.556 108.044 150.508 107.66 150.508 107.276C150.508 106.556 150.652 105.788 150.844 105.068C151.036 104.348 151.324 103.676 151.708 103.052C152.044 102.428 152.476 101.804 152.956 101.276C152.812 101.996 152.62 102.668 152.38 103.34L151.756 105.308C151.564 105.98 151.372 106.604 151.228 107.276C151.18 107.612 151.132 107.948 151.084 108.284C151.084 108.428 151.084 108.62 151.084 108.764C151.084 108.86 151.132 108.908 151.132 109.004C151.228 109.196 151.276 109.34 151.372 109.244Z" fill="#000001"/>
<path id="Vector_79" d="M148.828 98.3C149.356 98.492 149.884 98.78 150.316 99.164C150.796 99.548 151.228 99.98 151.516 100.508C151.612 100.652 151.66 100.844 151.708 100.988C151.756 101.228 151.756 101.468 151.66 101.708C151.612 101.852 151.516 101.948 151.42 102.044C151.324 102.092 151.276 102.14 151.18 102.188C151.036 102.284 150.844 102.332 150.7 102.38C150.076 102.476 149.404 102.236 148.972 101.708C149.452 101.852 149.98 101.804 150.46 101.66C150.556 101.612 150.652 101.564 150.7 101.468L150.796 101.372C150.748 101.228 150.7 101.084 150.652 100.988C150.364 100.556 150.076 100.124 149.74 99.74C149.5 99.212 149.164 98.78 148.828 98.3Z" fill="#000001"/>
<path id="Vector_80" d="M161.932 87.26L156.796 87.356C155.884 86.444 154.684 85.964 153.436 85.916C151.324 85.868 151.42 87.452 151.42 87.452L146.524 87.5L147.676 90.38L161.932 89.516V87.26Z" fill="#000001"/>
<path id="Vector_81" d="M165.052 88.412C165.052 88.412 145.132 88.46 145.132 89.084C145.132 89.708 153.484 116.732 153.484 116.732C153.484 116.732 172.3 116.204 172.588 115.58C172.876 114.956 165.052 88.412 165.052 88.412Z" fill="white"/>
<path id="Vector_82" d="M164.092 88.508C164.092 88.508 144.172 88.556 144.172 89.18C144.172 89.804 152.572 116.828 152.572 116.828C152.572 116.828 171.388 116.3 171.676 115.676C171.964 115.052 164.092 88.508 164.092 88.508Z" fill="#F2EBEB"/>
<path id="Vector_83" d="M146.716 102.476C146.716 102.476 149.596 104.3 150.556 103.724C151.516 103.148 146.716 99.5 146.716 99.5V102.476Z" fill="#EA8383"/>
<path id="Vector_84" d="M146.716 99.548C146.716 99.548 146.62 97.82 148.54 98.156C150.46 98.492 153.532 100.364 153.052 100.892C152.572 101.42 146.764 101.516 146.716 99.548Z" fill="#EA8383"/>
<path id="Vector_85" d="M204.508 122.972C205.612 124.172 206.62 125.468 207.628 126.764C208.636 128.06 209.596 129.356 210.508 130.7C211.42 132.044 212.332 133.388 213.244 134.732C214.156 136.076 214.972 137.516 215.74 138.956C214.636 137.756 213.628 136.46 212.62 135.164C211.612 133.868 210.652 132.572 209.74 131.228C208.828 129.884 207.916 128.54 207.052 127.196C206.188 125.852 205.276 124.412 204.508 122.972Z" fill="#000001"/>
<path id="Vector_86" d="M209.788 159.788C209.788 159.788 215.5 159.212 216.268 159.788C217.036 160.364 214.252 161.756 214.252 161.756C214.252 161.756 217.516 161.324 217.516 162.332C217.516 163.34 210.94 164.828 210.94 164.828L208.3 162.188L209.788 159.788Z" fill="#000001"/>
<path id="Vector_87" d="M211.132 144.86L202.06 155.612C202.06 155.612 205.996 165.02 206.092 165.308C206.188 165.596 207.676 165.308 207.676 165.308C207.676 165.308 216.46 168.236 216.748 167.468C217.036 166.7 214.972 164.348 213.34 164.06C212.092 163.772 210.892 163.34 209.788 162.812V159.02L214.876 154.46L211.132 144.86Z" fill="#EA8383"/>
<path id="Vector_88" d="M206.236 158.972C206.476 159.98 206.716 160.94 206.956 161.948C207.1 162.428 207.196 162.908 207.34 163.388C207.436 163.868 207.628 164.3 207.82 164.732C207.868 164.78 207.868 164.828 207.916 164.876C207.916 164.876 207.916 164.876 207.868 164.876H207.916L208.108 164.924L208.828 165.164C209.308 165.356 209.788 165.5 210.268 165.692C211.228 166.028 212.188 166.46 213.1 166.94C212.092 166.844 211.084 166.652 210.076 166.412C209.596 166.316 209.068 166.172 208.588 166.028L207.868 165.836L207.676 165.788L207.58 165.74C207.532 165.692 207.436 165.692 207.388 165.644C207.244 165.5 207.1 165.356 207.004 165.212C206.764 164.732 206.62 164.204 206.524 163.628C206.428 163.1 206.332 162.62 206.284 162.092C206.14 161.036 206.14 159.98 206.236 158.972Z" fill="#000001"/>
<path id="Vector_89" d="M206.236 150.572C205.42 151.724 204.556 152.78 203.644 153.884C203.404 154.124 203.212 154.412 202.972 154.652C202.78 154.892 202.636 155.132 202.588 155.42C202.492 155.708 202.492 155.996 202.492 156.284C202.492 156.428 202.54 156.572 202.588 156.716C202.636 156.86 202.684 157.004 202.78 157.148C203.356 158.396 203.932 159.644 204.46 160.94C204.988 162.236 205.516 163.532 205.9 164.876C205.132 163.724 204.412 162.524 203.788 161.276C203.164 160.028 202.492 158.828 201.868 157.532C201.772 157.34 201.724 157.196 201.628 157.004C201.58 156.812 201.532 156.62 201.532 156.38C201.484 155.948 201.532 155.564 201.676 155.18C201.82 154.796 202.012 154.46 202.3 154.172C202.54 153.932 202.78 153.692 203.068 153.452C204.076 152.396 205.132 151.484 206.236 150.572Z" fill="#000001"/>
<path id="Vector_90" d="M197.644 99.02C197.644 99.02 198.364 75.116 196.972 74.444C195.58 73.772 183.436 74.3 183.004 75.836C181.276 82.124 177.868 84.956 179.788 85.916C181.516 86.78 182.668 86.252 182.668 86.252C182.668 86.252 182.188 92.54 183.58 93.212C184.972 93.884 187.372 93.452 187.372 93.452L185.452 101.564L197.644 99.02Z" fill="#EA8383"/>
<path id="Vector_91" d="M191.5 85.628C191.5 85.628 196.396 92.012 197.788 92.012C199.18 92.012 199.18 74.252 198.268 73.244C197.356 72.236 185.02 66.572 183.052 67.196C181.084 67.82 183.052 70.508 183.052 70.508C183.052 70.508 178.348 69.212 177.388 71.084C176.428 72.956 181.276 74.636 183.532 75.356C185.788 76.076 190.444 75.98 190.444 75.98C190.444 75.98 188.62 79.82 189.052 80.636C189.484 81.452 190.972 82.46 190.972 82.46C190.972 82.46 192.124 79.436 193.516 80.492C194.908 81.548 193.42 86.012 191.5 85.628Z" fill="#000001"/>
<path id="Vector_92" d="M187.804 86.012C187.948 86.252 187.996 86.54 187.996 86.78C187.948 87.068 187.852 87.308 187.708 87.548C187.516 87.788 187.228 87.98 186.94 88.028C186.652 88.076 186.316 87.932 186.124 87.74C186.316 87.644 186.508 87.5 186.652 87.356C186.748 87.26 186.844 87.116 186.94 87.02L187.276 86.588C187.468 86.348 187.612 86.204 187.804 86.012Z" fill="#000001"/>
<path id="Vector_93" d="M186.652 79.58L185.5 78.956C185.356 78.908 185.212 78.764 185.02 78.716C184.828 78.668 184.636 78.524 184.348 78.332C184.54 78.14 184.828 77.996 185.116 77.948C185.404 77.9 185.692 77.948 185.98 78.092C186.22 78.236 186.46 78.428 186.604 78.716C186.7 79.004 186.748 79.292 186.652 79.58Z" fill="#000001"/>
<path id="Vector_94" d="M191.404 93.404C190.78 93.644 190.156 93.788 189.484 93.884C188.812 93.98 188.188 94.028 187.516 94.028C186.844 94.028 186.172 93.98 185.548 93.884C184.876 93.788 184.204 93.548 183.628 93.164C184.3 93.212 184.924 93.116 185.596 93.116C186.268 93.116 186.892 93.068 187.516 93.068C188.14 93.068 188.812 93.068 189.436 93.116C190.06 93.164 190.732 93.26 191.404 93.404Z" fill="#000001"/>
<path id="Vector_95" d="M187.612 81.452C187.612 81.452 185.356 79.58 183.676 81.5C183.58 81.644 183.58 81.836 183.724 81.98C183.724 81.98 183.724 81.98 183.772 81.98C184.396 82.46 186.316 83.372 187.612 81.452Z" fill="#F2EBEB"/>
<path id="Vector_96" d="M187.708 81.5C187.324 81.356 186.988 81.212 186.604 81.068C186.268 80.972 185.884 80.876 185.5 80.876C184.732 80.828 184.012 81.164 183.484 81.692C183.628 81.308 183.916 80.972 184.3 80.732C184.684 80.492 185.116 80.396 185.548 80.396C185.98 80.396 186.412 80.54 186.796 80.732C187.132 80.924 187.468 81.164 187.708 81.5Z" fill="#000001"/>
<path id="Vector_97" d="M185.068 80.684C185.068 80.684 185.74 81.164 184.924 82.556C184.924 82.556 183.148 82.124 183.484 81.644C183.532 81.644 184.492 80.492 185.068 80.684Z" fill="#000001"/>
<path id="Vector_98" d="M174.796 115.292C176.908 115.58 179.02 115.82 181.18 116.012C183.292 116.204 185.404 116.348 187.516 116.396C188.044 116.396 188.572 116.396 189.1 116.396C189.628 116.396 190.156 116.396 190.684 116.348L192.268 116.3C192.796 116.252 193.324 116.204 193.852 116.156C195.964 115.964 198.028 115.484 200.044 114.764C198.172 115.82 196.108 116.54 193.948 116.876C191.836 117.26 189.676 117.404 187.468 117.356C185.308 117.308 183.148 117.116 181.036 116.78C178.972 116.396 176.86 115.916 174.796 115.292Z" fill="white"/>
<path id="Vector_99" d="M212.908 107.084C211.756 107.468 210.652 107.948 209.548 108.524C208.492 109.052 207.484 109.724 206.572 110.444C206.092 110.828 205.66 111.212 205.228 111.596C204.796 112.028 204.412 112.46 204.076 112.94C203.356 113.9 202.684 114.956 202.156 116.012C202.348 114.764 202.828 113.564 203.5 112.508C203.836 111.98 204.22 111.452 204.604 110.972C205.036 110.492 205.516 110.06 205.996 109.676C207.004 108.908 208.108 108.236 209.26 107.804C210.46 107.324 211.66 107.084 212.908 107.084Z" fill="white"/>
<path id="Vector_100" d="M206.86 125.276C207.436 124.076 208.156 122.972 208.924 121.916C209.692 120.86 210.604 119.852 211.564 118.94C212.524 117.98 213.628 117.212 214.78 116.54C215.356 116.204 216.028 115.964 216.652 115.82C217.324 115.628 217.996 115.628 218.668 115.772C217.42 115.964 216.172 116.444 215.164 117.212C214.636 117.548 214.108 117.932 213.628 118.364C213.148 118.748 212.668 119.18 212.188 119.66C211.228 120.524 210.364 121.484 209.5 122.444L206.86 125.276Z" fill="white"/>
<path id="Vector_101" d="M212.476 132.668C213.148 131.66 213.868 130.748 214.684 129.884C215.5 129.02 216.364 128.204 217.276 127.484C218.188 126.716 219.244 126.092 220.3 125.564C220.828 125.276 221.404 125.084 222.028 124.94C222.604 124.796 223.228 124.796 223.852 124.94C223.276 124.988 222.7 125.132 222.172 125.372C221.644 125.612 221.164 125.852 220.684 126.188C219.724 126.812 218.812 127.484 217.9 128.204C216.988 128.924 216.124 129.644 215.212 130.412C214.3 131.18 213.388 131.948 212.476 132.668Z" fill="white"/>
<path id="Vector_102" d="M216.412 137.996C217.228 137.228 218.14 136.556 219.1 136.028C220.06 135.452 221.116 135.02 222.22 134.684C223.324 134.348 224.476 134.204 225.628 134.252C226.78 134.3 227.884 134.636 228.844 135.26C227.788 135.02 226.684 134.924 225.628 135.02L224.86 135.116C224.62 135.164 224.332 135.212 224.092 135.26C223.852 135.308 223.564 135.356 223.324 135.452C223.084 135.548 222.796 135.596 222.556 135.644C221.5 135.932 220.492 136.316 219.484 136.7C218.428 137.084 217.42 137.516 216.412 137.996Z" fill="white"/>
<path id="Vector_103" d="M214.444 140.876C215.404 140.924 216.364 141.068 217.276 141.356C218.188 141.596 219.1 141.932 219.964 142.364C220.876 142.796 221.644 143.372 222.364 144.092C222.7 144.476 222.988 144.86 223.228 145.34C223.42 145.772 223.516 146.3 223.42 146.78C223.18 145.916 222.604 145.148 221.884 144.62C221.164 144.092 220.396 143.612 219.58 143.228C218.764 142.796 217.9 142.412 217.084 142.028C216.268 141.644 215.308 141.26 214.444 140.876Z" fill="white"/>
<path id="Vector_104" d="M171.868 126.476L180.316 127.004C183.148 127.148 185.932 127.292 188.764 127.34C191.596 127.388 194.38 127.388 197.164 127.244C198.556 127.148 199.948 127.004 201.34 126.764C202.732 126.572 204.076 126.14 205.372 125.564C204.172 126.332 202.828 126.908 201.436 127.244C200.044 127.58 198.652 127.868 197.212 128.012C195.82 128.204 194.38 128.252 192.94 128.3C191.5 128.348 190.108 128.348 188.668 128.3C185.836 128.204 183.004 128.06 180.22 127.724C177.436 127.388 174.652 127.004 171.868 126.476Z" fill="white"/>
<path id="Vector_105" d="M178.3 104.924C180.364 105.452 182.428 105.788 184.54 106.076C186.604 106.316 188.716 106.412 190.828 106.316C192.94 106.22 195.004 105.932 197.02 105.356C199.036 104.78 200.956 103.868 202.732 102.716C201.148 104.204 199.276 105.356 197.26 106.076C195.196 106.796 193.084 107.228 190.876 107.324C188.716 107.42 186.556 107.228 184.444 106.844C182.332 106.412 180.268 105.788 178.3 104.924Z" fill="white"/>
<path id="Vector_106" d="M169.996 137.9C173.164 138.332 176.38 138.668 179.548 138.956C181.132 139.1 182.716 139.244 184.348 139.34C185.98 139.436 187.516 139.532 189.148 139.58C192.316 139.676 195.532 139.58 198.7 139.292C200.284 139.148 201.868 138.86 203.404 138.524C204.988 138.188 206.476 137.66 207.916 136.94C206.572 137.804 205.084 138.476 203.548 138.956C202.012 139.436 200.428 139.772 198.796 140.012C197.212 140.252 195.58 140.396 193.948 140.492C192.316 140.588 190.732 140.54 189.1 140.54C185.884 140.444 182.668 140.156 179.452 139.676C176.332 139.292 173.164 138.668 169.996 137.9Z" fill="white"/>
<path id="Vector_107" d="M168.94 149.516C172.06 149.948 175.18 150.332 178.3 150.668C181.42 151.004 184.54 151.244 187.708 151.34C189.292 151.436 190.828 151.436 192.412 151.388C193.996 151.34 195.532 151.292 197.116 151.148C198.652 151.004 200.236 150.764 201.724 150.428C203.26 150.092 204.7 149.516 206.092 148.7C204.844 149.66 203.404 150.38 201.868 150.86C200.332 151.34 198.796 151.676 197.212 151.868C194.044 152.252 190.876 152.396 187.708 152.252C184.54 152.108 181.372 151.82 178.252 151.34C175.084 150.908 172.012 150.284 168.94 149.516Z" fill="white"/>
<path id="Vector_108" d="M167.788 160.268C170.716 160.412 173.596 160.556 176.524 160.748C179.404 160.892 182.332 161.084 185.212 161.228C186.652 161.276 188.092 161.372 189.58 161.372C191.068 161.372 192.46 161.42 193.9 161.42C195.34 161.42 196.78 161.372 198.22 161.276C199.66 161.228 201.1 160.988 202.492 160.556C201.82 160.892 201.148 161.132 200.428 161.276C199.708 161.468 198.988 161.612 198.268 161.708C196.828 161.948 195.34 162.044 193.9 162.14C190.972 162.284 188.044 162.236 185.164 162.14C182.284 162.044 179.356 161.804 176.428 161.468C173.5 161.132 170.62 160.796 167.788 160.268Z" fill="white"/>
</g>
</g>
</g>
<defs>
<clipPath id="clip0_577_10111">
<rect width="240" height="175" fill="white" transform="translate(0.5)"/>
</clipPath>
</defs>
</svg>
