<svg width="120" height="121" viewBox="0 0 120 121" fill="none" xmlns="http://www.w3.org/2000/svg">
<g id="data-buried-svgrepo-com 1">
<path id="Vector" d="M54.8906 96.8047H64.9453V108.078H54.8906V96.8047Z" fill="#55B7A8"/>
<path id="Vector_2" d="M11.707 87.6406V96.8281H108.117V87.6406" fill="#55B7A8"/>
<path id="Vector_3" d="M109.055 97.7656H10.7695V87.6406H12.6445V95.8906H107.18V87.6406H109.055V97.7656Z" fill="#0A0408"/>
<path id="Vector_4" d="M11.707 87.6406V22.0273H108.117V87.6406" fill="white"/>
<path id="Vector_5" d="M10.7695 86.7031H12.6445V87.6406H10.7695V86.7031ZM12.6445 84.875H10.7695V83.0586H12.6445V84.875ZM12.6445 81.2422H10.7695V79.4258H12.6445V81.2422ZM12.6445 77.5977H10.7695V75.7812H12.6445V77.5977ZM12.6445 73.9531H10.7695V72.1367H12.6445V73.9531ZM12.6445 70.3086H10.7695V68.4922H12.6445V70.3086ZM12.6445 66.6758H10.7695V64.8594H12.6445V66.6758ZM12.6445 63.0312H10.7695V61.2148H12.6445V63.0312ZM12.6445 59.3867H10.7695V57.5703H12.6445V59.3867ZM12.6445 55.7422H10.7695V53.9258H12.6445V55.7422ZM12.6445 52.1094H10.7695V50.293H12.6445V52.1094ZM12.6445 48.4648H10.7695V46.6484H12.6445V48.4648ZM12.6445 44.8203H10.7695V43.0039H12.6445V44.8203ZM12.6445 41.1758H10.7695V39.3594H12.6445V41.1758ZM12.6445 37.543H10.7695V35.7266H12.6445V37.543ZM12.6445 33.8984H10.7695V32.082H12.6445V33.8984ZM12.6445 30.2539H10.7695V28.4375H12.6445V30.2539ZM12.6445 26.6094H10.7695V24.793H12.6445V26.6094ZM10.7695 21.0898H12.6445V22.9648H10.7695V21.0898ZM105.328 22.9648H103.477V21.0898H105.328V22.9648ZM101.625 22.9648H99.7734V21.0898H101.625V22.9648ZM97.9102 22.9648H96.0586V21.0898H97.9102V22.9648ZM94.207 22.9648H92.3555V21.0898H94.207V22.9648ZM90.5039 22.9648H88.6523V21.0898H90.5039V22.9648ZM86.7891 22.9648H84.9375V21.0898H86.7891V22.9648ZM83.0859 22.9648H81.2344V21.0898H83.0859V22.9648ZM79.3828 22.9648H77.5312V21.0898H79.3828V22.9648ZM75.668 22.9648H73.8164V21.0898H75.668V22.9648ZM71.9648 22.9648H70.1133V21.0898H71.9648V22.9648ZM68.2617 22.9648H66.4102V21.0898H68.2617V22.9648ZM64.5469 22.9648H62.6953V21.0898H64.5469V22.9648ZM60.8438 22.9648H58.9922V21.0898H60.8438V22.9648ZM57.1289 22.9648H55.2773V21.0898H57.1289V22.9648ZM53.4258 22.9648H51.5742V21.0898H53.4258V22.9648ZM49.7227 22.9648H47.8711V21.0898H49.7227V22.9648ZM46.0078 22.9648H44.1562V21.0898H46.0078V22.9648ZM42.3047 22.9648H40.4531V21.0898H42.3047V22.9648ZM38.6016 22.9648H36.75V21.0898H38.6016V22.9648ZM34.8867 22.9648H33.0352V21.0898H34.8867V22.9648ZM31.1836 22.9648H29.332V21.0898H31.1836V22.9648ZM27.4805 22.9648H25.6289V21.0898H27.4805V22.9648ZM23.7656 22.9648H21.9141V21.0898H23.7656V22.9648ZM20.0625 22.9648H18.2109V21.0898H20.0625V22.9648ZM16.3594 22.9648H14.5078V21.0898H16.3594V22.9648ZM107.18 21.0898H109.055V22.9648H107.18V21.0898ZM109.055 84.875H107.18V83.0586H109.055V84.875ZM109.055 81.2422H107.18V79.4258H109.055V81.2422ZM109.055 77.5977H107.18V75.7812H109.055V77.5977ZM109.055 73.9531H107.18V72.1367H109.055V73.9531ZM109.055 70.3086H107.18V68.4922H109.055V70.3086ZM109.055 66.6758H107.18V64.8594H109.055V66.6758ZM109.055 63.0312H107.18V61.2148H109.055V63.0312ZM109.055 59.3867H107.18V57.5703H109.055V59.3867ZM109.055 55.7422H107.18V53.9258H109.055V55.7422ZM109.055 52.1094H107.18V50.293H109.055V52.1094ZM109.055 48.4648H107.18V46.6484H109.055V48.4648ZM109.055 44.8203H107.18V43.0039H109.055V44.8203ZM109.055 41.1758H107.18V39.3594H109.055V41.1758ZM109.055 37.543H107.18V35.7266H109.055V37.543ZM109.055 33.8984H107.18V32.082H109.055V33.8984ZM109.055 30.2539H107.18V28.4375H109.055V30.2539ZM109.055 26.6094H107.18V24.793H109.055V26.6094ZM107.18 86.7031H109.055V87.6406H107.18V86.7031ZM46.1953 107.141H73.6406V109.016H46.1953V107.141ZM58.418 76.7656C58.0898 76.7656 57.7617 76.7539 57.4336 76.7422L57.5156 74.8672C58.1133 74.8906 58.7227 74.8906 59.3203 74.8672L59.4141 76.7422C59.0859 76.7539 58.7461 76.7656 58.418 76.7656ZM55.4648 76.5547C54.8086 76.4609 54.1523 76.332 53.5195 76.1797L53.9531 74.3516C54.5391 74.4922 55.125 74.6094 55.7227 74.6914L55.4648 76.5547ZM61.3828 76.5547L61.1133 74.7031C61.7109 74.6211 62.2969 74.5039 62.8828 74.3633L63.3281 76.1914C62.6953 76.332 62.0391 76.4609 61.3828 76.5547ZM51.6094 75.6289C50.9883 75.418 50.3672 75.1719 49.7695 74.8906L50.543 73.1797C51.082 73.4258 51.6562 73.6484 52.2188 73.8477L51.6094 75.6289ZM65.2383 75.6172L64.6289 73.8477C65.1914 73.6484 65.7539 73.4258 66.3047 73.1797L67.0898 74.8789C66.4805 75.1602 65.8594 75.4062 65.2383 75.6172ZM48.0117 73.9883C47.4375 73.6602 46.8867 73.2969 46.3477 72.9219L47.4375 71.3984C47.9297 71.75 48.4336 72.0781 48.9492 72.3711L48.0117 73.9883ZM68.8359 73.9766L67.8984 72.3594C68.4141 72.0547 68.9297 71.7266 69.4102 71.3867L70.5 72.9102C69.9609 73.2852 69.4102 73.6484 68.8359 73.9766ZM44.7891 71.6914C44.2852 71.2578 43.8047 70.8008 43.3594 70.3203L44.7188 69.0195C45.1289 69.4531 45.5742 69.875 46.0195 70.2617L44.7891 71.6914ZM72.0586 71.668L70.8281 70.25C71.2852 69.8516 71.7187 69.4414 72.1289 69.0078L73.4883 70.2969C73.043 70.7773 72.5508 71.2461 72.0586 71.668ZM42.0469 68.832C41.6367 68.3164 41.25 67.7773 40.8984 67.2148L42.4688 66.1953C42.7969 66.6992 43.1484 67.1914 43.5234 67.6602L42.0469 68.832ZM74.7891 68.8086L73.3125 67.6484C73.6875 67.1797 74.0391 66.6875 74.3555 66.1836L75.9375 67.2031C75.5859 67.7539 75.1992 68.293 74.7891 68.8086ZM39.9023 65.5039C39.5977 64.918 39.3164 64.3086 39.082 63.6992L40.8164 62.9961C41.0391 63.5469 41.2969 64.0977 41.5664 64.6367L39.9023 65.5039ZM76.9336 65.4805L75.2695 64.625C75.5391 64.0977 75.7969 63.5352 76.0195 62.9844L77.7656 63.6758C77.5078 64.2852 77.2383 64.8945 76.9336 65.4805ZM38.4258 61.8242C38.2383 61.1914 38.0859 60.5469 37.957 59.9023L39.7969 59.5508C39.9141 60.1367 40.0547 60.7227 40.2188 61.2969L38.4258 61.8242ZM78.4101 61.8008L76.6055 61.2734C76.7695 60.6992 76.9219 60.1133 77.0273 59.5156L78.8672 59.8672C78.75 60.5234 78.5859 61.168 78.4101 61.8008ZM37.6758 57.9336C37.6172 57.2773 37.582 56.6211 37.582 55.9531H39.457C39.457 56.5508 39.4922 57.1602 39.5391 57.7578L37.6758 57.9336ZM79.1484 57.9102L77.2852 57.7344C77.3438 57.1367 77.3672 56.5273 77.3672 55.9297V55.8828H79.2422V55.918C79.2422 56.5977 79.207 57.2656 79.1484 57.9102ZM39.5391 54.1602L37.6758 53.9844C37.7344 53.3281 37.8281 52.6719 37.957 52.0273L39.7969 52.3789C39.6797 52.9531 39.5977 53.5625 39.5391 54.1602ZM77.2852 54.0898C77.2266 53.4922 77.1445 52.8945 77.0273 52.3086L78.8672 51.957C78.9961 52.6016 79.0898 53.2578 79.1484 53.9141L77.2852 54.0898ZM40.2188 50.6211L38.4141 50.0938C38.6016 49.4609 38.8125 48.8281 39.0586 48.2188L40.8047 48.9102C40.582 49.4727 40.3828 50.0469 40.2188 50.6211ZM76.5937 50.5508C76.4297 49.9766 76.2188 49.4023 75.9961 48.8516L77.7305 48.1484C77.9766 48.7578 78.1992 49.3906 78.3867 50.0234L76.5937 50.5508ZM41.5547 47.2695L39.8906 46.4141C40.1953 45.8281 40.5234 45.2539 40.8867 44.6914L42.4688 45.6992C42.1289 46.2148 41.8242 46.7422 41.5547 47.2695ZM75.2461 47.2109C74.9648 46.6836 74.6602 46.1562 74.3438 45.6523L75.9141 44.6328C76.2773 45.1836 76.6055 45.7578 76.9101 46.3438L75.2461 47.2109ZM43.5 44.2344L42.0234 43.0742C42.4336 42.5586 42.8672 42.0547 43.3242 41.5742L44.6836 42.8633C44.2617 43.3086 43.8633 43.7656 43.5 44.2344ZM73.2891 44.1875C72.9141 43.7187 72.5156 43.2617 72.1055 42.8281L73.4648 41.5273C73.9219 42.0078 74.3555 42.5117 74.7656 43.0273L73.2891 44.1875ZM45.9844 41.6328L44.7539 40.2148C45.2461 39.7812 45.7734 39.3711 46.3125 38.9844L47.4023 40.5078C46.9102 40.8594 46.4297 41.2344 45.9844 41.6328ZM70.793 41.5859C70.3359 41.1992 69.8672 40.8242 69.375 40.4727L70.4648 38.9492C71.0039 39.3359 71.5312 39.7461 72.0234 40.168L70.793 41.5859ZM48.9141 39.5352L47.9766 37.918C48.5508 37.5898 49.1367 37.2852 49.7344 37.0039L50.5078 38.7031C49.9688 38.9492 49.4297 39.2305 48.9141 39.5352ZM67.8633 39.5C67.3477 39.1953 66.8086 38.9258 66.2578 38.6797L67.0312 36.9688C67.6289 37.2383 68.2266 37.543 68.7891 37.8711L67.8633 39.5ZM52.1836 38.0234L51.5625 36.2539C52.1836 36.043 52.8281 35.8437 53.4609 35.6914L53.9062 37.5078C53.332 37.6602 52.7461 37.8359 52.1836 38.0234ZM64.582 38.0117C64.0195 37.8125 63.4336 37.6484 62.8477 37.5078L63.2812 35.6797C63.9258 35.832 64.5586 36.0195 65.1797 36.2305L64.582 38.0117ZM55.6875 37.1797L55.418 35.3281C56.0625 35.2344 56.7305 35.1758 57.3867 35.1406L57.4805 37.0156C56.8828 37.0391 56.2734 37.0859 55.6875 37.1797ZM61.0781 37.168C60.4922 37.0859 59.8828 37.0273 59.2852 37.0039L59.3672 35.1289C60.0234 35.1641 60.6914 35.2227 61.3359 35.3164L61.0781 37.168Z" fill="#0A0408"/>
<path id="Vector_6" d="M63.5625 76.4023L45.8789 58.707L28.1953 76.3906L63.5625 76.4023Z" fill="#EBB866"/>
<path id="Vector_7" d="M65.8359 77.3398L25.9336 77.3281L45.8789 57.3828L65.8359 77.3398ZM30.457 75.4531L61.3008 75.4648L45.8789 60.043L30.457 75.4531Z" fill="#0A0408"/>
<path id="Vector_8" d="M93.3047 76.1562L67.4531 50.3047L41.3438 76.4023L93.3047 76.1562Z" fill="#68A4D9"/>
<path id="Vector_9" d="M39.0703 77.3516L67.4414 48.9805L95.5547 77.0937L39.0703 77.3516ZM67.4531 51.6289L43.6172 75.4531L91.0547 75.2305L67.4531 51.6289Z" fill="#0A0408"/>
<path id="Vector_10" d="M8.75391 19.0859H14.6602V24.9922H8.75391V19.0859Z" fill="#DC444A"/>
<path id="Vector_11" d="M15.5977 25.918H7.81641V18.1367H15.5977V25.918ZM9.69141 24.043H13.7227V20.0117H9.69141V24.043Z" fill="#0A0408"/>
<path id="Vector_12" d="M105.281 19.0859H111.187V24.9922H105.281V19.0859Z" fill="#DC444A"/>
<path id="Vector_13" d="M112.113 25.918H104.332V18.1367H112.113V25.918ZM106.219 24.043H110.25V20.0117H106.219V24.043Z" fill="#0A0408"/>
</g>
</svg>
