<svg width="16" height="17" viewBox="0 0 16 17" fill="none" xmlns="http://www.w3.org/2000/svg">
<g id="deadline-svgrepo-com 1" clip-path="url(#clip0_1558_11768)">
<path id="Vector" d="M10.9237 5.13084C8.88904 2.96583 9.64394 0.5 9.64394 0.5C6.54383 1.38572 5.2836 2.97509 5.2836 5.66457C4.97405 5.45215 4.18593 5.12596 4.18593 5.12596C2.42812 9.17187 5.86024 11.6953 8.36807 11.7466C8.40075 11.7471 8.43397 11.7476 8.46718 11.7476C10.5946 11.7476 14.2543 8.67479 10.9237 5.13084Z" fill="#FC6E51"/>
<path id="Vector_2" d="M10.6934 7.01267C8.85403 6.37986 8.21973 3.94824 8.21973 3.94824C6.6753 5.22655 6.292 6.54687 6.90088 8.32422C6.65672 8.29539 6.4707 8.29392 6.4707 8.29392L10.6934 7.01267Z" fill="#FFCE54"/>
<path id="Vector_3" d="M12.9961 11.5034C12.9961 14.2627 10.7588 16.5 7.99952 16.5C5.23977 16.5 3.00293 14.2627 3.00293 11.5034C3.00293 8.74368 5.23974 6.50684 7.99952 6.50684C10.7588 6.50687 12.9961 8.74368 12.9961 11.5034Z" fill="#8CC153"/>
<path id="Vector_4" d="M12.9961 10.8369C12.9961 13.5967 10.7588 15.8335 7.99952 15.8335C5.23977 15.8335 3.00293 13.5967 3.00293 10.8369C3.00293 8.07764 5.23974 5.84033 7.99952 5.84033C10.7588 5.84033 12.9961 8.07764 12.9961 10.8369Z" fill="#A0D468"/>
<g id="Group">
<path id="Vector_5" d="M7.99997 6.17383C7.81589 6.17383 7.66699 6.32276 7.66699 6.50681C7.66699 6.69086 7.81592 6.83982 7.99997 6.83982C8.18355 6.83982 8.33295 6.69086 8.33295 6.50681C8.33295 6.32276 8.18355 6.17383 7.99997 6.17383Z" fill="#8CC153"/>
<path id="Vector_6" d="M7.99997 14.8345C7.81589 14.8345 7.66699 14.9834 7.66699 15.1675C7.66699 15.3516 7.81592 15.5005 7.99997 15.5005C8.18355 15.5005 8.33295 15.3515 8.33295 15.1675C8.33295 14.9834 8.18355 14.8345 7.99997 14.8345Z" fill="#8CC153"/>
<path id="Vector_7" d="M5.66745 6.79837C5.50826 6.89063 5.45356 7.09426 5.54585 7.25345C5.63767 7.41263 5.84124 7.46733 6.00092 7.37551C6.16011 7.28322 6.21481 7.07959 6.12252 6.92044C6.0307 6.76078 5.8271 6.70655 5.66745 6.79837Z" fill="#8CC153"/>
<path id="Vector_8" d="M9.99767 14.2989C9.83848 14.3907 9.78378 14.5947 9.8756 14.7539C9.96786 14.9131 10.1715 14.9678 10.3307 14.876C10.4899 14.7837 10.5446 14.5801 10.4527 14.4209C10.3604 14.2613 10.1569 14.207 9.99767 14.2989Z" fill="#8CC153"/>
<path id="Vector_9" d="M4.41565 8.38329C4.25647 8.29147 4.05284 8.34617 3.96055 8.50536C3.86876 8.66454 3.92343 8.86817 4.08261 8.96043C4.2418 9.05225 4.4459 8.99755 4.53772 8.83837C4.62951 8.67915 4.57534 8.47558 4.41565 8.38329Z" fill="#8CC153"/>
<path id="Vector_10" d="M11.9156 12.7138C11.7565 12.6216 11.5528 12.6763 11.4606 12.8359C11.3687 12.9951 11.4235 13.1987 11.5826 13.2905C11.7418 13.3828 11.9459 13.3281 12.0377 13.1689C12.1295 13.0098 12.0753 12.8057 11.9156 12.7138Z" fill="#8CC153"/>
<path id="Vector_11" d="M3.66895 10.5039C3.48487 10.5039 3.33594 10.6533 3.33594 10.8369C3.33594 11.021 3.4849 11.1704 3.66895 11.1704C3.853 11.1704 4.00193 11.021 4.00193 10.8369C4.00196 10.6533 3.85303 10.5039 3.66895 10.5039Z" fill="#8CC153"/>
<path id="Vector_12" d="M12.3291 10.5039C12.1455 10.5039 11.9961 10.6533 11.9961 10.8369C11.9961 11.021 12.1455 11.1704 12.3291 11.1704C12.5132 11.1704 12.6621 11.021 12.6621 10.8369C12.6626 10.6533 12.5132 10.5039 12.3291 10.5039Z" fill="#8CC153"/>
<path id="Vector_13" d="M4.08261 12.7138C3.92343 12.8057 3.86876 13.0093 3.96055 13.169C4.05284 13.3281 4.25647 13.3828 4.41565 13.291C4.57531 13.1987 4.62951 12.9951 4.53772 12.8359C4.4459 12.6763 4.2418 12.6216 4.08261 12.7138Z" fill="#8CC153"/>
<path id="Vector_14" d="M11.9156 8.96043C12.0753 8.86817 12.1295 8.66454 12.0377 8.50536C11.9459 8.34617 11.7418 8.29147 11.5826 8.38329C11.4235 8.47558 11.3687 8.67918 11.4606 8.83837C11.5529 8.99752 11.7565 9.05222 11.9156 8.96043Z" fill="#8CC153"/>
<path id="Vector_15" d="M6.00042 14.2989C5.84124 14.207 5.63764 14.2613 5.54585 14.4209C5.45356 14.5801 5.50826 14.7837 5.66745 14.876C5.8271 14.9678 6.0307 14.9131 6.12252 14.7539C6.21481 14.5947 6.16011 14.3907 6.00042 14.2989Z" fill="#8CC153"/>
<path id="Vector_16" d="M9.99767 7.37551C10.1569 7.46733 10.3604 7.41263 10.4527 7.25345C10.5446 7.09426 10.4899 6.89063 10.3307 6.79837C10.1715 6.70655 9.96786 6.76078 9.8756 6.92044C9.78378 7.07959 9.83848 7.28322 9.99767 7.37551Z" fill="#8CC153"/>
</g>
<path id="Vector_17" d="M10.1196 12.4858L8.33295 10.6992V8.17233C8.33295 7.98825 8.18355 7.83936 7.99997 7.83936C7.81589 7.83936 7.66699 7.98828 7.66699 8.17233V10.8369C7.66699 10.9292 7.70411 11.0127 7.76463 11.0727L9.64838 12.957C9.71384 13.0219 9.79881 13.0546 9.88422 13.0546C9.9692 13.0546 10.0546 13.0219 10.1196 12.957C10.25 12.8267 10.25 12.6162 10.1196 12.4858Z" fill="#434A54"/>
</g>
<defs>
<clipPath id="clip0_1558_11768">
<rect width="16" height="16" fill="white" transform="translate(0 0.5)"/>
</clipPath>
</defs>
</svg>
