<svg width="120" height="120" viewBox="0 0 120 120" fill="none" xmlns="http://www.w3.org/2000/svg">
<path d="M22.2761 89.6239C22.2761 89.6239 15.7961 31.2273 20.3899 29.7566C24.9837 28.286 37.2744 29.3277 40.8338 29.3277C44.3933 29.3277 45.8231 33.5251 45.8231 33.5251C45.8231 33.5251 78.1014 34.6588 80.4135 35.3634C82.7257 36.0681 73.1426 89.6239 73.1426 89.6239H22.2761Z" fill="#000001"/>
<path d="M33.3195 41.5216C33.3195 41.5216 99.4277 40.1428 101.314 42.6245C103.2 45.1062 91.9742 88.1837 89.3578 89.6237C86.7415 91.0637 22.2761 89.6237 22.2761 89.6237C22.2761 89.6237 30.2164 41.5828 33.3195 41.5216Z" fill="#F3CB5C"/>
<path d="M32.1938 81.6577C33.6846 80.9224 35.2057 80.1871 36.6355 79.3598C37.3657 78.9615 38.035 78.502 38.6738 77.9811C38.826 77.8586 38.9781 77.7054 39.0998 77.5828C39.2215 77.4603 39.3127 77.3071 39.3736 77.1539C39.404 77.0313 39.3736 76.9701 39.2215 76.8781C39.0693 76.7862 38.9172 76.725 38.7347 76.725C38.3696 76.6943 38.0045 76.7862 37.7003 76.9701C37.3657 77.1539 37.0615 77.399 36.7876 77.7054C36.2705 78.2875 35.8446 78.9922 35.6012 79.7581C35.4795 80.1258 35.3882 80.5241 35.3578 80.8918C35.3274 81.2594 35.3882 81.6271 35.5707 81.9335C35.7533 82.2399 36.0271 82.4543 36.3617 82.5156C36.7268 82.6075 37.1223 82.6381 37.4874 82.5769C39.0998 82.4237 40.5905 81.6884 41.6857 80.5241C41.9595 80.2484 42.2029 79.942 42.355 79.605C42.3854 79.5437 42.4158 79.4518 42.4462 79.3598C42.4462 79.3292 42.4462 79.2986 42.4462 79.2373C42.4462 79.2679 42.4767 79.2373 42.4158 79.2373C42.355 79.2373 42.2637 79.2373 42.2029 79.2679C41.8378 79.3905 41.5031 79.5743 41.1989 79.8194C40.8947 80.0645 40.6209 80.3403 40.3775 80.6773C40.1341 80.9837 39.9212 81.3207 39.7691 81.6884C39.6169 82.0254 39.5561 82.393 39.6169 82.7607C39.7386 83.0977 40.0429 83.3428 40.3775 83.3735C40.56 83.4041 40.773 83.4347 40.9555 83.4347C41.1381 83.4347 41.351 83.4041 41.564 83.4041C42.3854 83.3122 43.146 83.0058 43.8153 82.5156C44.4846 82.0254 45.0322 81.382 45.4277 80.6467C45.093 81.4126 44.5758 82.1173 43.9065 82.6381C43.2372 83.1896 42.4462 83.5267 41.5944 83.7105C41.3815 83.7411 41.1685 83.7718 40.9555 83.7718C40.7426 83.7718 40.5296 83.7718 40.2862 83.7411C40.0429 83.7105 39.8299 83.6186 39.6474 83.496C39.4344 83.3428 39.2823 83.1284 39.2215 82.8832C39.0998 82.4237 39.1606 81.9335 39.3431 81.5045C39.4953 81.1062 39.7082 80.7079 39.982 80.3403C40.4992 79.605 41.1989 79.0228 42.0203 78.7164C42.142 78.6858 42.2637 78.6552 42.4158 78.6552C42.6288 78.6552 42.8113 78.7471 42.9026 78.9003C42.9938 79.0535 42.9938 79.2373 42.9634 79.3905C42.933 79.513 42.9026 79.6356 42.8417 79.7581C42.6592 80.1564 42.3854 80.5241 42.0812 80.8611C40.8947 82.1479 39.2519 82.9752 37.5178 83.1284C37.0615 83.159 36.6051 83.1284 36.1792 83.0364C35.6924 82.9139 35.2969 82.5769 35.0231 82.1479C34.8102 81.719 34.7189 81.2594 34.7493 80.7692C34.7798 80.3096 34.871 79.8807 35.0231 79.4518C35.3274 78.6245 35.7837 77.8586 36.3922 77.2152C36.6964 76.8781 37.0615 76.6024 37.4265 76.3879C37.8524 76.1735 38.3088 76.0816 38.7651 76.1122C39.0085 76.1428 39.2214 76.2347 39.4344 76.3573C39.5561 76.4492 39.6474 76.5411 39.7082 76.6637C39.7691 76.8169 39.7691 76.9701 39.7386 77.1233C39.6474 77.3684 39.5257 77.5522 39.3431 77.736C39.191 77.8892 39.0389 78.0424 38.8564 78.165C38.1871 78.6552 37.4569 79.1147 36.6964 79.4824C35.2665 80.3709 33.7454 81.0449 32.1938 81.6577Z" fill="white"/>
<path d="M90.5747 83.0676L92.2479 87.265L95.2902 85.5493L93.191 81.6582L90.5747 83.0676Z" fill="#000001"/>
<path d="M103.869 115.299C103.869 115.299 91.2439 89.532 91.3352 87.6324C91.4265 85.7329 96.0811 84.9976 96.0811 84.9976C96.0811 84.9976 110.349 109.141 111.292 112.848C112.235 116.555 104.721 117.045 103.869 115.299Z" fill="#87CCDB"/>
<path d="M68.3356 49.7333C68.3356 49.7333 60.9733 58.2507 65.7192 70.3835C70.4652 82.5163 78.2533 91.6465 94.7728 80.6167C111.292 69.5869 99.975 50.8056 92.6128 45.1682C85.2505 39.5307 70.9519 45.1988 68.3356 49.7333Z" fill="#469F78"/>
<path d="M71.1956 52.3983C71.1956 52.3983 65.2327 59.2919 69.066 69.0962C72.8992 78.9004 79.2271 86.3149 92.5826 77.3685C105.938 68.4221 96.7809 53.2562 90.8485 48.6911C84.9161 44.126 73.2947 48.7217 71.1956 52.3983Z" fill="white"/>
<mask id="mask0_4420_51120" style="mask-type:luminance" maskUnits="userSpaceOnUse" x="91" y="84" width="21" height="33">
<path d="M103.869 115.299C103.869 115.299 91.2439 89.532 91.3352 87.6324C91.4265 85.7329 96.0811 84.9976 96.0811 84.9976C96.0811 84.9976 110.349 109.141 111.292 112.848C112.235 116.555 104.721 117.045 103.869 115.299Z" fill="white"/>
</mask>
<g mask="url(#mask0_4420_51120)">
<path d="M147.069 127.738C147.039 127.738 147.039 127.738 147.009 127.738L69.4919 103.166C69.4006 103.135 69.3398 103.043 69.3702 102.951C69.4006 102.859 69.4919 102.798 69.5832 102.829L147.1 127.401C147.191 127.431 147.252 127.523 147.221 127.615C147.221 127.707 147.161 127.738 147.069 127.738Z" fill="white"/>
<path d="M148.651 122.223C148.621 122.223 148.621 122.223 148.59 122.223L70.8304 99.1216C70.7391 99.0909 70.6782 98.9684 70.7391 98.8765C70.7695 98.7845 70.8608 98.7539 70.9521 98.7539L148.712 121.855C148.803 121.886 148.864 121.978 148.834 122.07C148.803 122.162 148.712 122.223 148.651 122.223Z" fill="white"/>
<path d="M150.111 117.106C150.081 117.106 150.081 117.106 150.051 117.106L72.1081 94.6179C72.0169 94.5873 71.956 94.4954 71.9864 94.4035C72.0169 94.3116 72.1081 94.2503 72.1994 94.2809L150.142 116.739C150.233 116.769 150.294 116.861 150.264 116.953C150.264 117.045 150.172 117.106 150.111 117.106Z" fill="white"/>
<path d="M151.481 112.235H151.42L73.2946 90.2366C73.2034 90.2059 73.1425 90.114 73.173 90.0221C73.2034 89.9302 73.2946 89.8689 73.3859 89.8996L151.511 111.898C151.602 111.929 151.663 112.02 151.633 112.112C151.633 112.174 151.572 112.235 151.481 112.235Z" fill="white"/>
<path d="M152.971 106.965H152.91L74.3897 86.56C74.2984 86.5294 74.2375 86.4375 74.2375 86.3456C74.268 86.2537 74.3592 86.1924 74.4505 86.1924H74.4809L153.002 106.597C153.093 106.628 153.154 106.72 153.123 106.812C153.123 106.904 153.062 106.965 152.971 106.965Z" fill="white"/>
<path d="M154.249 102.523H154.188L75.5153 82.6077C75.4241 82.577 75.3632 82.4851 75.3937 82.3932C75.4241 82.3013 75.5153 82.24 75.6066 82.2707L154.279 102.186C154.371 102.216 154.431 102.308 154.431 102.4C154.431 102.461 154.34 102.523 154.249 102.523Z" fill="white"/>
<path d="M155.07 99.6731H155.04L76.2761 80.034C76.1848 80.0033 76.124 79.9114 76.1544 79.8195C76.1848 79.7276 76.2761 79.6663 76.3674 79.6969L155.101 99.3361C155.192 99.3667 155.253 99.4586 155.223 99.5506C155.223 99.6425 155.131 99.7038 155.07 99.6731Z" fill="white"/>
<path d="M155.77 97.2523H155.709L77.1887 76.8472C77.0975 76.8165 77.0366 76.7246 77.0366 76.6327C77.067 76.5408 77.1583 76.4795 77.2496 76.4795H77.28L155.801 96.8846C155.892 96.9152 155.953 97.0072 155.922 97.0991C155.922 97.191 155.831 97.2523 155.77 97.2523Z" fill="white"/>
<path d="M84.4595 126.849H84.3987C84.3074 126.819 84.2465 126.727 84.277 126.635L103.078 60.4867C103.109 60.3948 103.23 60.3335 103.321 60.3948C103.413 60.4254 103.443 60.5173 103.443 60.6093L84.642 126.757C84.5812 126.788 84.5203 126.849 84.4595 126.849Z" fill="white"/>
<path d="M80.4744 125.593C80.444 125.593 80.444 125.593 80.4135 125.593C80.3223 125.563 80.2614 125.471 80.2918 125.379L99.6406 60.3336C99.671 60.2417 99.7623 60.1805 99.8535 60.2111C99.9448 60.2417 100.006 60.3336 99.9752 60.4256L80.6265 125.471C80.6265 125.532 80.5656 125.593 80.4744 125.593Z" fill="white"/>
<path d="M99.5493 134.632H99.4885C99.3972 134.601 99.3364 134.509 99.3668 134.417L125.013 51.755C125.043 51.6631 125.135 51.6018 125.226 51.6325C125.317 51.6631 125.378 51.755 125.348 51.8469L99.7015 134.478C99.7015 134.57 99.6406 134.632 99.5493 134.632Z" fill="white"/>
<path d="M95.6248 133.314C95.5944 133.314 95.5944 133.314 95.5639 133.314C95.4727 133.283 95.4118 133.191 95.4422 133.099L119.659 50.2228C119.689 50.1309 119.78 50.0696 119.872 50.1003C119.963 50.1309 120.024 50.2228 119.993 50.3147L95.7769 133.191C95.7769 133.253 95.716 133.314 95.6248 133.314Z" fill="white"/>
<path d="M91.2744 132.058H91.2136C91.1223 132.028 91.0615 131.936 91.0919 131.844L114.7 48.7834C114.73 48.6914 114.821 48.6302 114.913 48.6608C115.004 48.6914 115.065 48.7834 115.034 48.8753L91.4265 131.905C91.3961 131.997 91.3353 132.058 91.2744 132.058Z" fill="white"/>
<path d="M86.9846 130.863C86.9542 130.863 86.9542 130.863 86.9238 130.863C86.8325 130.832 86.7717 130.74 86.8021 130.648L109.954 47.4347C109.984 47.3428 110.075 47.2815 110.167 47.3122C110.258 47.3428 110.319 47.4347 110.288 47.5266L87.1368 130.74C87.1368 130.802 87.0759 130.863 86.9846 130.863Z" fill="white"/>
<path d="M83.3949 129.791H83.3645C83.2732 129.76 83.2124 129.668 83.2428 129.576L104.843 45.9337C104.873 45.8418 104.964 45.7806 105.056 45.8112C105.147 45.8418 105.208 45.9337 105.177 46.0257L83.5774 129.668C83.547 129.76 83.4862 129.791 83.3949 129.791Z" fill="white"/>
<path d="M79.5616 128.657H79.5312C79.44 128.626 79.3791 128.534 79.4095 128.442L100.523 44.6774C100.553 44.5855 100.644 44.5242 100.736 44.5548C100.827 44.5855 100.857 44.6774 100.857 44.7693L79.7442 128.534C79.7138 128.626 79.6225 128.657 79.5616 128.657Z" fill="white"/>
<path d="M77.067 127.952H77.0366C76.9453 127.921 76.8845 127.829 76.9149 127.738L97.7543 43.8805C97.7848 43.7886 97.876 43.7273 97.9673 43.758C98.0586 43.7886 98.1194 43.8805 98.089 43.9724L77.2495 127.829C77.2191 127.891 77.1583 127.952 77.067 127.952Z" fill="white"/>
<path d="M73.964 127.064H73.9336C73.8423 127.033 73.7814 126.941 73.8119 126.849L95.4119 43.2067C95.4423 43.1148 95.5336 43.0535 95.6248 43.0841C95.7161 43.1148 95.7769 43.2067 95.7465 43.2986L74.1465 126.941C74.1161 127.002 74.0552 127.064 73.964 127.064Z" fill="white"/>
<path d="M144.787 92.9323H144.727L80.9914 72.3128C80.9002 72.2821 80.8393 72.1902 80.8697 72.0983C80.9002 72.0064 80.9914 71.9451 81.0827 71.9757L144.848 92.5647C144.94 92.5953 145 92.6872 144.97 92.7791C144.94 92.8711 144.879 92.9323 144.787 92.9323Z" fill="white"/>
<path d="M146.37 87.4178C146.339 87.4178 146.339 87.4178 146.309 87.4178L82.2695 68.2688C82.1782 68.2382 82.1174 68.1463 82.1478 68.0543C82.1782 67.9624 82.2695 67.9012 82.3608 67.9318L146.4 87.0501C146.491 87.0807 146.552 87.1727 146.522 87.2646C146.491 87.3565 146.431 87.4178 146.37 87.4178Z" fill="white"/>
<path d="M110.653 139.35H110.623C110.532 139.319 110.471 139.227 110.501 139.135L131.615 55.3703C131.645 55.2784 131.736 55.2171 131.828 55.2477C131.919 55.2784 131.98 55.3703 131.949 55.4622L110.836 139.227C110.806 139.289 110.745 139.35 110.653 139.35Z" fill="white"/>
<path d="M108.189 138.614H108.159C108.068 138.584 108.007 138.492 108.037 138.4L128.877 54.5428C128.907 54.4509 128.998 54.3896 129.09 54.3896C129.181 54.3896 129.242 54.5122 129.242 54.6041V54.6348L108.372 138.492C108.341 138.584 108.281 138.614 108.189 138.614Z" fill="white"/>
<path d="M105.056 137.726H105.025C104.934 137.695 104.873 137.603 104.904 137.511L126.504 53.8688C126.534 53.7769 126.625 53.7156 126.717 53.7463C126.808 53.7769 126.869 53.8688 126.838 53.9607L105.238 137.603C105.208 137.665 105.147 137.726 105.056 137.726Z" fill="white"/>
</g>
<path d="M91.9133 42.625C91.8525 42.0123 91.7916 41.3995 91.8221 40.7867C91.8221 40.174 91.8525 39.5612 91.8829 38.9791C91.9133 38.3663 92.0046 37.7842 92.0654 37.1714C92.1567 36.5587 92.2784 35.9765 92.4305 35.3638C92.4914 35.9765 92.5522 36.5893 92.5218 37.2021C92.5218 37.8148 92.4914 38.4276 92.4609 39.0097C92.4305 39.5919 92.3392 40.2046 92.248 40.8174C92.1871 41.4302 92.0654 42.0123 91.9133 42.625Z" fill="#EA8383"/>
<path d="M94.0427 42.9316C94.5903 42.2575 95.1988 41.6141 95.8072 41.0014C96.4157 40.3886 97.0546 39.7758 97.663 39.1937C98.2715 38.6116 98.9408 38.0294 99.6101 37.478C100.279 36.9265 100.949 36.375 101.679 35.8848C101.131 36.5588 100.523 37.2022 99.9143 37.815C99.3058 38.4277 98.667 39.0405 98.0585 39.6226C97.4501 40.2048 96.7808 40.7869 96.1115 41.3384C95.4422 41.8899 94.7424 42.4414 94.0427 42.9316Z" fill="#EA8383"/>
<path d="M96.355 44.5242C96.6896 44.3098 97.0547 44.1566 97.4198 44.034C97.7848 43.9115 98.1499 43.7889 98.515 43.697C98.8801 43.6051 99.2451 43.5438 99.6406 43.5132C100.036 43.4519 100.401 43.4519 100.797 43.4825C100.462 43.697 100.097 43.8502 99.7319 43.9727C99.3668 44.0953 99.0017 44.2178 98.6367 44.3098C98.2716 44.4017 97.9065 44.463 97.511 44.4936C97.146 44.5549 96.7505 44.5549 96.355 44.5242Z" fill="#EA8383"/>
<path d="M77.1886 64.9293C77.0365 64.9293 76.8844 64.8987 76.7323 64.8374C76.276 64.6842 75.9109 64.3165 75.7588 63.857C75.485 62.8459 76.4585 61.651 76.5802 61.4978L76.641 61.4365L76.7019 61.4059C77.645 60.9463 78.1622 61.3446 78.3751 61.5897C78.9227 62.2638 78.801 63.5506 78.2839 64.2859C78.0405 64.6842 77.645 64.8987 77.1886 64.9293ZM77.067 62.0493C76.8236 62.3557 76.3064 63.1829 76.4585 63.6731C76.5498 63.9182 76.7323 64.1021 76.9757 64.1633C77.0669 64.194 77.4016 64.3165 77.7058 63.8876C78.0709 63.3667 78.1317 62.4476 77.8275 62.0799C77.6754 61.8961 77.432 61.8961 77.067 62.0493Z" fill="#000001"/>
<path d="M84.186 64.9293C84.0338 64.9293 83.8817 64.8987 83.7296 64.8374C83.2733 64.6842 82.9082 64.3165 82.7561 63.857C82.4823 62.8459 83.4558 61.651 83.5775 61.4978L83.6384 61.4365L83.6992 61.4059C84.6423 60.9463 85.1595 61.3446 85.3724 61.5897C85.92 62.2638 85.7984 63.5506 85.2812 64.2859C85.0378 64.6842 84.6423 64.9293 84.186 64.9293ZM84.0643 62.0493C83.8209 62.3863 83.3037 63.1829 83.4558 63.6731C83.5471 63.9182 83.7296 64.1021 83.973 64.1633C84.2468 64.2859 84.551 64.1633 84.7031 63.8876C85.0682 63.3667 85.1291 62.4476 84.8248 62.0799C84.6727 61.9267 84.4293 61.8961 84.0643 62.0493Z" fill="#000001"/>
<path d="M90.7878 65.2057C90.6356 65.2057 90.4835 65.175 90.3314 65.1137C89.8751 64.9605 89.51 64.5929 89.3579 64.1333C89.0841 63.1223 90.0576 61.9274 90.1793 61.7742L90.2402 61.7129L90.301 61.6823C91.2441 61.2227 91.7613 61.621 91.9742 61.8661C92.5218 62.5401 92.4001 63.8269 91.883 64.5623C91.6396 64.9606 91.2441 65.175 90.7878 65.2057ZM90.6965 62.295C90.4531 62.6014 89.9359 63.4286 90.088 63.9495C90.1793 64.1946 90.3618 64.3784 90.6052 64.4397C90.879 64.5623 91.1833 64.4397 91.3354 64.164C91.7004 63.6431 91.7613 62.724 91.4571 62.3563C91.2745 62.1725 91.0311 62.1418 90.6965 62.295Z" fill="#000001"/>
<path d="M26.2005 59.1384C23.5537 59.3528 20.907 59.1384 18.321 58.5256C17.0433 58.2192 15.7655 57.7596 14.5791 57.1469C13.3926 56.5341 12.2974 55.7375 11.3543 54.7877C10.4112 53.8073 9.68104 52.6737 9.19428 51.4175C8.6771 50.1613 8.37287 48.8439 8.2816 47.4958C8.19034 46.1477 8.15991 44.8303 8.15991 43.4822C8.15991 42.1341 8.2816 40.8167 8.43372 39.4686C8.73794 36.803 9.40724 34.1988 10.3808 31.6864C11.3543 29.1741 12.7537 26.8456 14.5486 24.8541C16.374 22.8626 18.6557 21.3307 21.1808 20.3503C22.4281 19.8907 23.7362 19.5537 25.0748 19.3698C25.4095 19.3086 25.7441 19.3086 26.0788 19.2473L26.5655 19.186L27.0523 19.1554L28.0563 19.0941H29.0602C29.7295 19.0941 30.3684 19.1247 31.0377 19.1247C31.707 19.1247 32.3458 19.0941 32.9847 19.0022C34.2929 18.8796 35.5706 18.6345 36.8179 18.2362C39.3126 17.5009 41.6247 16.1835 43.5413 14.4064C44.5148 13.5179 45.3363 12.5375 46.0664 11.4345C46.7965 10.3622 47.3441 9.16728 47.7092 7.91111C47.8917 7.29835 47.9526 6.68558 47.8613 6.04218C47.8309 5.76643 47.7092 5.52133 47.4962 5.36814C47.2529 5.24558 46.9791 5.24558 46.7661 5.36814C46.1881 5.61324 45.7013 6.01154 45.3667 6.53239C45.0016 7.05324 44.7582 7.63537 44.6061 8.27878C44.454 8.89154 44.4236 9.53495 44.5148 10.1477C44.6061 10.7605 44.9712 11.2813 45.4579 11.6183C46.0055 11.9247 46.614 12.0166 47.2529 11.9247C47.8917 11.8328 48.5002 11.6796 49.1086 11.4345C49.7171 11.1894 50.2951 10.9137 50.8731 10.5766L51.725 10.0864C52.0292 9.93324 52.303 9.74941 52.6072 9.62686C53.7937 9.04473 55.0715 8.6158 56.3796 8.34005C57.6878 8.09494 58.996 7.97239 60.3346 8.03367C61.6732 8.09494 62.9813 8.27877 64.2591 8.6158C66.845 9.2592 69.2788 10.3009 71.53 11.7103C70.4044 11.0362 69.2179 10.4235 68.001 9.93324C66.7841 9.44303 65.5064 9.04473 64.2286 8.73835C62.9509 8.46261 61.6427 8.27877 60.3346 8.24814C59.0264 8.2175 57.7182 8.34005 56.4405 8.6158C55.1627 8.89154 53.9154 9.32048 52.7593 9.9026C52.4551 10.0252 52.1813 10.209 51.9075 10.3622L51.0557 10.8524C50.4777 11.1894 49.8692 11.4958 49.2608 11.7409C48.6219 12.0166 47.983 12.2005 47.3137 12.2924C46.614 12.4149 45.8839 12.2924 45.2754 11.9554C44.9712 11.7715 44.6974 11.4958 44.4844 11.1894C44.3019 10.883 44.1498 10.546 44.0889 10.209C43.9672 9.53494 43.9977 8.79963 44.1498 8.12558C44.3019 7.45154 44.6061 6.80814 44.9712 6.22601C45.3667 5.61324 45.9143 5.15367 46.5836 4.87792C46.7661 4.81665 46.9486 4.78601 47.1312 4.75537C47.3441 4.75537 47.5571 4.78601 47.7396 4.90856C47.9222 5.03112 48.0743 5.18431 48.1655 5.36814C48.2568 5.55197 48.3177 5.7358 48.3481 5.91963C48.4394 6.62431 48.3785 7.32899 48.1655 8.00303C47.8005 9.32048 47.2224 10.546 46.4619 11.6796C45.7317 12.8132 44.8495 13.8549 43.8455 14.7741C41.8681 16.6124 39.4951 17.9605 36.9092 18.7571C34.3233 19.523 31.6461 19.8294 28.9689 19.6456H27.9954L27.0219 19.6762L26.5351 19.7069L26.0484 19.7681C25.7137 19.7988 25.4095 19.8294 25.0748 19.8907C23.7971 20.0745 22.5194 20.4115 21.3024 20.8405C18.8686 21.7596 16.6478 23.2303 14.8833 25.1605C13.1188 27.1213 11.7193 29.3579 10.7762 31.809C10.2895 33.0345 9.86357 34.2907 9.55935 35.5775C9.2247 36.8643 8.98132 38.1511 8.82921 39.4686C8.64667 40.786 8.5554 42.1035 8.49456 43.4209C8.43371 44.7383 8.49456 46.0558 8.55541 47.4039C8.64667 48.7213 8.92048 50.0081 9.37681 51.2337C9.86357 52.4592 10.5633 53.5622 11.4455 54.5426C12.3278 55.4924 13.3926 56.289 14.5486 56.9018C15.7047 57.5145 16.9216 58.0047 18.1993 58.3111C19.4771 58.6481 20.7853 58.8626 22.0934 58.9852C23.5233 59.1996 24.8619 59.1996 26.2005 59.1384Z" fill="#EA8383"/>
<path d="M78.6796 14.3451C78.6796 14.3451 74.7551 9.74934 77.4323 8.24806C80.1095 6.74679 79.9574 13.9468 78.6796 14.3451Z" fill="#000001"/>
<path d="M80.7785 8.73865C80.7785 8.73865 81.9954 7.63567 82.2692 10.3625C82.543 13.0893 78.6489 14.3761 78.6489 14.3761C78.6489 14.3761 77.9492 10.485 80.7785 8.73865Z" fill="#87CCDB"/>
<path d="M80.292 13.7937C80.292 13.7937 73.1427 12.66 74.177 14.866C75.2114 17.072 80.9917 17.2864 82.1173 16.0609C83.2429 14.8354 82.6041 14.0388 80.292 13.7937Z" fill="#000001"/>
<path d="M79.1662 13.6406C79.3792 13.8551 79.5313 14.1308 79.5921 14.4372C79.653 14.7436 79.6226 15.0806 79.5313 15.387C79.44 15.6934 79.2575 15.9691 79.075 16.1836C78.9837 16.3062 78.862 16.3981 78.7403 16.49C78.6186 16.5819 78.4969 16.6738 78.3752 16.7351C78.4665 16.6125 78.5578 16.49 78.649 16.3674L78.8924 15.9998C79.0445 15.7547 79.1662 15.5096 79.2575 15.2338C79.4096 14.7436 79.3792 14.1615 79.1662 13.6406Z" fill="white"/>
<path d="M76.6715 13.4878C76.7628 13.7023 76.8236 13.9474 76.854 14.1618C76.8844 14.4069 76.854 14.652 76.8236 14.8665C76.7628 15.1116 76.6715 15.3261 76.5498 15.5406C76.4281 15.755 76.2456 15.9082 76.0022 16.0308C76.1239 15.8469 76.2456 15.6325 76.3368 15.4486C76.4281 15.2648 76.489 15.0503 76.5194 14.8359C76.6106 14.4069 76.6411 13.9474 76.6715 13.4878Z" fill="white"/>
<path d="M83.9124 12.8135C83.8819 13.0892 83.8211 13.365 83.7298 13.6407C83.6386 13.9165 83.5169 14.1922 83.3648 14.4373C83.2126 14.6824 82.9997 14.9275 82.7563 15.0807C82.4825 15.2339 82.1783 15.3258 81.874 15.2952L81.5698 15.2645L81.8132 15.0501C81.9349 14.9275 82.0262 14.805 82.1479 14.6824C82.2391 14.5599 82.3304 14.4067 82.4217 14.2535C82.5129 14.1003 82.5738 13.9471 82.6346 13.7939C82.6955 13.6407 82.7259 13.4569 82.7563 13.2731C82.7867 13.6407 82.7563 14.0084 82.6042 14.3148C82.5433 14.4679 82.4521 14.6518 82.3608 14.805C82.2695 14.9582 82.1479 15.1113 82.0262 15.2339L81.9349 14.9888C82.1783 14.9888 82.4217 14.9275 82.6346 14.805C82.8476 14.6518 83.0301 14.4679 83.1518 14.2841C83.456 13.8245 83.6994 13.3343 83.9124 12.8135Z" fill="#000001"/>
</svg>
