<svg width="48" height="48" viewBox="0 0 48 48" fill="none" xmlns="http://www.w3.org/2000/svg">
<g id="height-svgrepo-com 1" clip-path="url(#clip0_3120_50006)">
<path id="Vector" d="M31.0262 2.67139C29.3981 2.67139 28.0781 3.99133 28.0781 5.6195C28.0781 7.24767 29.3981 8.56762 31.0262 8.56762C32.6544 8.56762 33.9744 7.24767 33.9744 5.6195C33.9823 3.99121 32.6624 2.67139 31.0262 2.67139Z" fill="#FFC10D"/>
<path id="Vector_2" d="M31.0268 0.0078125C27.9285 0.0078125 25.415 2.52911 25.415 5.61954C25.415 8.71779 27.9363 11.2392 31.0347 11.2392C34.1331 11.2392 36.6544 8.71791 36.6544 5.61954C36.6543 2.52911 34.125 0.0078125 31.0268 0.0078125ZM31.0268 8.57548C29.3986 8.57548 28.0786 7.25553 28.0786 5.62736C28.0786 3.99919 29.3986 2.67925 31.0268 2.67925C32.6549 2.67925 33.9749 3.99919 33.9749 5.62736C33.9828 7.25553 32.6629 8.57548 31.0268 8.57548Z" fill="#194F82"/>
<path id="Vector_3" d="M37.5073 17.0406C37.5073 16.0368 36.6932 15.2227 35.6894 15.2227H35.0176L32.2513 21.941C31.777 23.0712 30.2358 23.0002 29.7852 21.941L27.0189 15.2148H26.355C25.3513 15.2148 24.5371 16.029 24.5371 17.0248V31.5915H37.4994V17.0406H37.5073Z" fill="#56ACE0"/>
<path id="Vector_4" d="M26.6242 45.3364H29.6909V39.1397C29.6909 38.4047 30.2836 37.804 31.0266 37.804C31.7616 37.804 32.3623 38.3967 32.3623 39.1397V45.3364H35.429V34.271H26.6162V45.3364H26.6242Z" fill="#FFC10D"/>
<g id="Group">
<path id="Vector_5" d="M35.6977 12.5513H34.1406C33.6031 12.5513 33.1131 12.8832 32.9155 13.3732L31.0423 17.9258L29.1612 13.3732C28.9557 12.8753 28.4736 12.5513 27.9361 12.5513H26.3712C23.8973 12.5513 21.8896 14.5668 21.8896 17.0328V32.9354C21.8896 33.6704 22.4824 34.2711 23.2254 34.2711H23.9684V46.6643C23.9684 47.3994 24.5611 48 25.3041 48H36.7805C37.5155 48 38.1162 47.4073 38.1162 46.6643V34.271H38.8512C39.5863 34.271 40.187 33.6782 40.187 32.9352V17.0406C40.1871 14.5666 38.1716 12.5513 35.6977 12.5513ZM35.4448 45.3363H32.3781V39.1397C32.3781 38.4046 31.7853 37.804 31.0423 37.804C30.3073 37.804 29.7066 38.3967 29.7066 39.1397V45.3363H26.6399V34.271H35.4527V45.3363H35.4448ZM24.5454 31.6073V17.0406C24.5454 16.0369 25.3596 15.2227 26.3634 15.2227H27.0352L29.8015 21.9489C30.252 23.008 31.7933 23.079 32.2675 21.9489L35.0338 15.2305H35.7057C36.7094 15.2305 37.5236 16.0447 37.5236 17.0485V31.6152H24.5454V31.6073Z" fill="#194F82"/>
<path id="Vector_6" d="M16.2537 2.67156C16.9888 2.67156 17.5895 2.07883 17.5895 1.33584C17.5895 0.592851 16.981 0 16.2537 0H9.14822C8.41318 0 7.8125 0.592728 7.8125 1.33572V46.6642C7.8125 47.3992 8.40523 47.9999 9.14822 47.9999H16.2537C16.9888 47.9999 17.5895 47.4071 17.5895 46.6642C17.5895 45.9291 16.9967 45.3284 16.2537 45.3284H10.4919V41.59H16.2537C16.9888 41.59 17.5895 40.9973 17.5895 40.2543C17.5895 39.5113 16.9967 38.9186 16.2537 38.9186H10.4919V34.9982H13.2424C13.9775 34.9982 14.5781 34.4054 14.5781 33.6625C14.5781 32.9197 13.9854 32.3268 13.2424 32.3268H10.4919V28.6119H16.2537C16.9888 28.6119 17.5895 28.0191 17.5895 27.2761C17.5895 26.5411 16.9967 25.9404 16.2537 25.9404H10.4919V22.0201H13.2424C13.9775 22.0201 14.5781 21.4274 14.5781 20.6844C14.5781 19.9493 13.9854 19.3486 13.2424 19.3486H10.4919V15.6418H16.2537C16.9888 15.6418 17.5895 15.049 17.5895 14.3061C17.5895 13.571 16.9967 12.9703 16.2537 12.9703H10.4919V9.04204H13.2424C13.9775 9.04204 14.5781 8.44931 14.5781 7.70633C14.5781 6.96334 13.9854 6.37061 13.2424 6.37061H10.4919V2.61617H16.2537V2.67156Z" fill="#194F82"/>
</g>
</g>
<defs>
<clipPath id="clip0_3120_50006">
<rect width="48" height="48" fill="white"/>
</clipPath>
</defs>
</svg>
