<svg width="48" height="48" viewBox="0 0 48 48" fill="none" xmlns="http://www.w3.org/2000/svg">
<g id="scale-weight-svgrepo-com (1) 1">
<path id="Vector" d="M24 1.05469C10.7452 1.05469 0 3.82125 0 7.23384V44.7006C0 45.9403 1.005 46.9451 2.24456 46.9451H45.7554C46.9952 46.9451 48 45.9401 48 44.7006V7.23384C48 3.82125 37.2548 1.05469 24 1.05469Z" fill="#AFAFD9"/>
<path id="Vector_2" opacity="0.1" d="M2.28225 44.7006V7.23384C2.28225 3.91969 12.4163 1.21509 25.1411 1.06172C24.7628 1.05712 24.3826 1.05469 24 1.05469C10.7452 1.05469 0 3.82116 0 7.23384V44.7006C0 45.9403 1.005 46.9451 2.24456 46.9451H4.52681C3.28725 46.9451 2.28225 45.9401 2.28225 44.7006Z" fill="black"/>
<path id="Vector_3" d="M38.3482 6.03465C38.3107 6.02678 38.274 6.0189 38.2359 6.01103C34.2424 5.18875 29.1865 4.73584 23.9998 4.73584C18.8131 4.73584 13.7572 5.18875 9.76368 6.01103C9.72571 6.0189 9.68905 6.02678 9.65137 6.03465V15.0429H38.3482V6.03465Z" fill="white"/>
<path id="Vector_4" opacity="0.1" d="M15.4693 6.01093C18.7257 5.34043 22.6886 4.91584 26.8526 4.78187C25.9101 4.7515 24.9572 4.73584 23.9998 4.73584C18.8131 4.73584 13.7572 5.18875 9.76368 6.01103C9.72571 6.0189 9.68905 6.02678 9.65137 6.03465V15.0429H15.357V6.03446C15.3946 6.02659 15.4312 6.01881 15.4693 6.01093Z" fill="black"/>
<path id="Vector_5" opacity="0.1" d="M41.8871 20.8853H6.11228C5.09453 20.8853 4.26953 21.7103 4.26953 22.728V42.412C4.26953 43.4298 5.09453 44.2548 6.11228 44.2548H41.887C42.9048 44.2548 43.7298 43.4298 43.7298 42.412V22.7281C43.7299 21.7103 42.9048 20.8853 41.8871 20.8853Z" fill="black"/>
<g id="Group">
<path id="Vector_6" d="M41.8871 19.4014H6.11228C5.09453 19.4014 4.26953 20.2264 4.26953 21.2441V40.9282C4.26953 41.946 5.09453 42.771 6.11228 42.771H41.887C42.9048 42.771 43.7298 41.946 43.7298 40.9282V21.2443C43.7299 20.2266 42.9048 19.4014 41.8871 19.4014Z" fill="#464655"/>
<path id="Vector_7" d="M13.4982 9.18321C13.2556 9.18321 13.0144 9.08065 12.8451 8.88106L10.6359 6.27725C10.3301 5.91687 10.3743 5.37678 10.7347 5.07096C11.0952 4.76515 11.6353 4.8094 11.941 5.16978L14.1502 7.77359C14.456 8.13396 14.4118 8.67406 14.0514 8.97987C13.8905 9.11646 13.6938 9.18321 13.4982 9.18321Z" fill="#464655"/>
<path id="Vector_8" d="M18.5086 8.40061C18.1819 8.40061 17.8699 8.21255 17.7274 7.89521L16.5792 5.33846C16.3856 4.90721 16.5782 4.40068 17.0095 4.20718C17.4406 4.01349 17.9472 4.20615 18.1407 4.6373L19.2889 7.19405C19.4826 7.6253 19.2899 8.13183 18.8587 8.32533C18.745 8.37633 18.6258 8.40061 18.5086 8.40061Z" fill="#464655"/>
<path id="Vector_9" d="M34.5019 9.18314C34.3062 9.18314 34.1095 9.11639 33.9487 8.97989C33.5882 8.67407 33.544 8.13398 33.8498 7.77361L36.059 5.16979C36.3648 4.80942 36.9049 4.76517 37.2653 5.07089C37.6257 5.3767 37.67 5.91679 37.3642 6.27717L35.155 8.88098C34.9856 9.08039 34.7446 9.18314 34.5019 9.18314Z" fill="#464655"/>
<path id="Vector_10" d="M29.4912 8.40059C29.374 8.40059 29.255 8.3764 29.1412 8.32531C28.71 8.13162 28.5174 7.62509 28.711 7.19403L29.8594 4.63728C30.0531 4.20603 30.5594 4.01356 30.9908 4.20715C31.4219 4.40084 31.6145 4.90737 31.4209 5.33843L30.2725 7.89518C30.1299 8.21243 29.818 8.40059 29.4912 8.40059Z" fill="#464655"/>
</g>
<path id="Vector_11" d="M24.0004 12.7786C23.5277 12.7786 23.1445 12.3954 23.1445 11.9227V7.33582C23.1445 6.86314 23.5277 6.47998 24.0004 6.47998C24.4731 6.47998 24.8562 6.86314 24.8562 7.33582V11.9227C24.8562 12.3954 24.4731 12.7786 24.0004 12.7786Z" fill="#FF6465"/>
<path id="Vector_12" d="M20.8799 15.0429C20.8799 13.3197 22.2768 11.9229 23.9999 11.9229C25.723 11.9229 27.1199 13.3197 27.1199 15.0429H20.8799Z" fill="#464655"/>
</g>
</svg>
